<svg xmlns="http://www.w3.org/2000/svg" xmlns:xlink="http://www.w3.org/1999/xlink" viewBox="0 0 2693.17 1930.97"><defs><style>.cls-1{fill:none;}.cls-2{opacity:0.1;}.cls-3{clip-path:url(#clip-path);}.cls-4{fill:#5000ff;}</style><clipPath id="clip-path" transform="translate(-426.47 -884.84)"><rect class="cls-1" x="423.17" y="369.46" width="2506.53" height="2746.63" transform="translate(-530.76 754.85) rotate(-22)"/></clipPath></defs><g id="Layer_2" data-name="Layer 2"><g id="Capa_1" data-name="Capa 1"><g id="Grupo_1407" data-name="Grupo 1407" class="cls-2"><g class="cls-3"><g id="Grupo_1407-2" data-name="Grupo 1407-2"><path id="Trazado_1478" data-name="Trazado 1478" class="cls-4" d="M1840.35,1724.53a44.57,44.57,0,0,0-2.15,28.58,60.59,60.59,0,0,0,14.56,24.9c14.48,15.56,34.17,26.43,54,33.66a334,334,0,0,0,32.92,9.66,177.88,177.88,0,0,0,38.55,6.34,64.25,64.25,0,0,0,35.18-7.63,51.5,51.5,0,0,0,22.6-30.83,49.83,49.83,0,0,0-3.11-33.83,143.77,143.77,0,0,0-20.56-30.14,211.36,211.36,0,0,1-21.89-29.24,234.77,234.77,0,0,1-11.12-25.36c-7.81-17.93-16.78-36.65-30.38-51a48,48,0,0,0-21.3-14,33.24,33.24,0,0,0-25,3.77,81.87,81.87,0,0,0-25.43,24.83,144.44,144.44,0,0,0-18.25,36.9c-4.09,12-16.38,48.06-18.65,53.4m29.75-70.4a97.59,97.59,0,0,1,21.11-30.76c6.75-6.78,15.07-13.23,24.9-14.56,17.13-2.32,30.52,12.51,39.28,25.28a267.46,267.46,0,0,1,25.41,50.32,123.42,123.42,0,0,0,5.59,12.45,132.1,132.1,0,0,0,9.6,14.56c7.19,9.55,15.32,18.41,22.45,28a73.34,73.34,0,0,1,14.76,30,47.06,47.06,0,0,1-8.37,34.76,44.94,44.94,0,0,1-28.47,18.43,100.09,100.09,0,0,1-36.8-.7,335.4,335.4,0,0,1-36-8.85,184.11,184.11,0,0,1-28.13-10.16c-18-8.31-36.39-20.08-47.33-37.12a43.37,43.37,0,0,1-7.41-25.14c.3-9.93,9.25-38.39,29.42-86.54" transform="translate(-426.47 -884.84)"/><path id="Trazado_1479" data-name="Trazado 1479" class="cls-4" d="M1804.52,1816.64a107.19,107.19,0,0,0,23,29.74,181.9,181.9,0,0,0,32.13,23.36c10.4,6,21.16,11.38,31.53,17.29s20.63,11.62,31.44,16.5a83.66,83.66,0,0,0,31.33,8.47c21,.75,40-9,60-13.19,6.78-1.46,13.77-2.17,20.65-3.07,7.17-1,14.24-2,21.38-3.08a364.17,364.17,0,0,0,47.81-10.45A143.78,143.78,0,0,0,2146.1,1863,58.5,58.5,0,0,0,2170,1830.6c4.54-17.81-1.52-35.65-8.56-51.86a296.5,296.5,0,0,0-39.76-65.17c-7.68-9.89-15.92-19.31-24.47-28.45a342.87,342.87,0,0,1-26.51-31.87,592.08,592.08,0,0,1-43-70.52c-6.12-11.49-11.88-23.33-18.39-34.6a114.82,114.82,0,0,0-17-22.34,87.74,87.74,0,0,0-42.11-23.58,99.16,99.16,0,0,0-47.19,1.47,141.41,141.41,0,0,0-46.08,22.35,167.29,167.29,0,0,0-39,39.7,197.87,197.87,0,0,0-27,56.6,275.36,275.36,0,0,0-11.16,64.12,335.93,335.93,0,0,0,2.64,65.11,291.37,291.37,0,0,0,14.46,59.57c.82,2.36,4.41.8,3.53-1.48a254.65,254.65,0,0,1-8.25-27.28,321.79,321.79,0,0,1-8.91-61.73,308.25,308.25,0,0,1,3.6-64.52,234.25,234.25,0,0,1,18-60.12,174.1,174.1,0,0,1,32.88-48.38,154.63,154.63,0,0,1,41.74-30.95,117,117,0,0,1,46.17-12.65,85.08,85.08,0,0,1,44.43,10,97.38,97.38,0,0,1,36.19,36.83c6.48,11.13,12,22.73,18.15,34.08,6.34,11.87,12.88,23.64,19.8,35.19a383.31,383.31,0,0,0,47.94,65.38,401.69,401.69,0,0,1,45.92,58,255.83,255.83,0,0,1,18.15,33.36,133.4,133.4,0,0,1,10.41,30.17,49.24,49.24,0,0,1-8.4,39.09c-8.46,11.3-21,18.86-33.69,24.56a236.55,236.55,0,0,1-45.48,14c-14.6,3.05-29.37,5.27-44.16,7.36-6.53.9-13.16,1.62-19.63,2.8a288.71,288.71,0,0,0-29.11,8.11,103.85,103.85,0,0,1-29.48,5.44,76.88,76.88,0,0,1-31-7.51c-10.62-4.64-20.74-10.38-30.92-16-10.34-5.77-20.88-11.06-31.11-17-22.31-12.88-43.66-29.33-55.69-52.64-1-2.11-4.6-.69-3.44,1.54" transform="translate(-426.47 -884.84)"/><path id="Trazado_1480" data-name="Trazado 1480" class="cls-4" d="M2081.81,2016.94c34.47,6.13,69.65,3.68,104.31,1.48s71.2-1.3,101.38-21.36a180,180,0,0,0,29.48-25.47,238.76,238.76,0,0,0,28.7-35.4,90.55,90.55,0,0,0,14.6-32.73,95.21,95.21,0,0,0-2.24-41.56c-7.53-28.36-24.23-53.49-40.38-77.66-7.93-11.85-16-23.6-23.27-36-4.07-6.84-7.64-14.07-11.7-20.92-5.14-8.65-10.73-17-16.7-25.13-22.66-31-49.83-58.1-74.42-87.47A407.05,407.05,0,0,1,2156.5,1567a398.87,398.87,0,0,1-27.43-56.26c-14.3-33.88-27.87-68.49-46.39-100.4a259.9,259.9,0,0,0-70.73-80,183.19,183.19,0,0,0-47-26.38,143.19,143.19,0,0,0-44.75-7.87,154,154,0,0,0-87.15,24.94c-29.11,19.2-50.88,49.14-67,79.51a387,387,0,0,0-36.35,105.39c-3.5,17.54-5.62,35.17-7.44,52.88-2,19.54-4.18,38.92-5.78,58.46-3,38.49-4.11,78.17,5.31,115.88,9.31,37.16,26.85,71.43,38.94,107.69.82,2.36,4.35.88,3.53-1.48-5.82-17-12.69-33.77-19.5-50.67a454.38,454.38,0,0,1-18.71-53.63,266.35,266.35,0,0,1-7.73-57.2c-1.27-37.65,3.18-75.17,7-112.51,3.78-36.18,9.13-71.65,20.38-106.4s27.11-68.44,49.92-97.08c20.5-25.74,46.07-45.76,77.85-55.33a147.13,147.13,0,0,1,92.15,2,184.19,184.19,0,0,1,46.29,26.88,239.35,239.35,0,0,1,39.71,37.52c22.65,26.86,38.79,58.37,52.93,90.34,15.31,34.7,27.6,71.21,47.25,103.77,19.85,32.8,45.79,61,71.16,89.61,12.26,13.82,24.48,27.72,35.68,42.4a383.88,383.88,0,0,1,29.65,46.54c13.87,24.67,31.34,47.07,45.66,71.44s26.62,52.09,23.27,80.84a81.43,81.43,0,0,1-13.5,34.31,230.78,230.78,0,0,1-26.75,34,197.45,197.45,0,0,1-30.16,26.82,112.66,112.66,0,0,1-48.24,17.88c-17,2.51-34.49,2.67-51.64,3.77s-34.29,2.2-51.46,2.44a291.76,291.76,0,0,1-51.84-3.61,330.77,330.77,0,0,1-48.11-13.63c-31.25-10.35-62.85-19.84-93.91-31-61.53-22.32-128.71-52.92-162.84-112.12-1.21-2.15-4.82-.72-3.53,1.47a176.63,176.63,0,0,0,28.43,36.91c23.86,23.81,53.22,41.44,83.57,55.64a845.38,845.38,0,0,0,99,37.37c15.92,5.19,31.87,10.16,47.79,15.35a345.57,345.57,0,0,0,47.74,13.62" transform="translate(-426.47 -884.84)"/><path id="Trazado_1481" data-name="Trazado 1481" class="cls-4" d="M2082.93,2102.38c84.48-4.9,175.69-11.9,246.69-62.79a239.15,239.15,0,0,0,46.41-44c13.13-16.24,24.57-34.1,36.86-50.89a227.75,227.75,0,0,0,27-43.93,105.38,105.38,0,0,0,8.14-50,375.76,375.76,0,0,0-13.59-66.58,471.57,471.57,0,0,0-22.87-63.56c-19.21-43.23-43.88-85.69-77.62-119.18-35.18-34.94-77-62.82-109-101.13-31.36-37.56-55.31-80.73-77.82-123.9-10.57-20.28-20.5-41-30.76-61.52a318,318,0,0,0-34.42-57,151.14,151.14,0,0,0-49.86-41.24,145.24,145.24,0,0,0-61.39-14.86c-9.65-.36-19.33-.14-29-.13-10.37,0-21.61.38-31.69-2.56-19.13-5.43-29.91-22.71-41.68-37.28-7.79-9.72-16.56-18.89-28.86-22.84a49.78,49.78,0,0,0-28.26-.13c-23.41,6.28-43.34,23.48-60,40.34a411.11,411.11,0,0,0-50.15,62.55,349,349,0,0,0-35.18,67.34,304.31,304.31,0,0,0-17.17,61.76,181.57,181.57,0,0,0-2.89,32.18,227.16,227.16,0,0,0,3.41,31.61c3.51,21.79,6.37,42.78,2.14,64.78-3.77,20.25-11,39.6-15.85,59.62-5.16,21.61-5.06,43.27-4.29,65.38a401.08,401.08,0,0,0,7.85,70.44c19.35,89.16,84.32,158.79,117.54,242.24a1.91,1.91,0,0,0,3.53-1.48,483.36,483.36,0,0,0-27.76-57.2c-21.61-39-46.35-76.14-65.49-116.43a320.47,320.47,0,0,1-22.55-61.17,363.78,363.78,0,0,1-9-69.64c-1.07-22.19-1.89-44.58,2.75-66.3,4.26-19.92,11.36-39,15.79-58.82a159.35,159.35,0,0,0,.8-60.74c-3.27-21.26-6.51-41.66-3.93-63.2,7.63-61.2,35.38-116.66,72.53-164.94,16.18-20.93,34.06-41.2,55.34-57,16.37-12.12,38.27-24,59.17-17.26,13,4.17,21.72,14.65,29.93,25,10.8,13.67,21.34,28.63,38.53,34.43a91.49,91.49,0,0,0,27.52,3.37c9.54.16,19.23-.06,28.82,0,21.52.28,42.25,3.16,62.06,12.06,42.81,19.34,67.58,58.25,87.81,98.91,20.33,40.85,40.24,81.79,63.63,121a547.13,547.13,0,0,0,40.4,59.21,387.19,387.19,0,0,0,47.36,48.71c18.91,16.49,38.51,32.13,56.81,49.18a298.9,298.9,0,0,1,47.93,56.45,488.23,488.23,0,0,1,58.4,123.35,480.87,480.87,0,0,1,15.23,66.12,104.62,104.62,0,0,1-4.76,54.8,196,196,0,0,1-26.11,44.27c-11.66,16-22.7,32.57-34.63,48.29A244.07,244.07,0,0,1,2275.42,2065c-39.47,16.32-82,23.94-124.27,28.48-21.67,2.27-43.34,3.81-65.06,5.08-23.36,1.37-46.53,3-69.79.46a1.95,1.95,0,0,0-.55,3.85c22.82,2.12,45,.77,67.18-.52" transform="translate(-426.47 -884.84)"/><path id="Trazado_1482" data-name="Trazado 1482" class="cls-4" d="M2097.82,2334.24c3.16,1,6.23,2,9.44,3a145.45,145.45,0,0,0,75.84,2.55c61-13.6,116-45.89,172.93-70.57,30.69-13.31,62.28-23.49,90.58-41.67,27.81-17.79,49.55-42.33,71.75-66.31,25.95-28.1,52.43-57.88,73.52-90.58,16.4-5.7,32.58-12.52,49.48-16a121.82,121.82,0,0,1,63.9,5.58,67.36,67.36,0,0,1,24,13.64,155.76,155.76,0,0,1,17.25,20.56c17.51,23.4,56.15,63.93,68.48,76.59a8.31,8.31,0,0,0,8.89,2,249.42,249.42,0,0,0,28.72-12.36,382.76,382.76,0,0,0,95-74.06c50.07-52.24,85.83-115.08,120.72-177.91,15.74-28.34,30.74-57.55,41.17-88.39a202.19,202.19,0,0,0,9.79-41.52,156.49,156.49,0,0,0-3.11-44.93c-7.11-39.89-19.24-78.59-30.21-117.59a1011.92,1011.92,0,0,1-26.42-124.81c-6.42-43.06-11.6-86.35-19.43-129.27-3.75-20.38-8-40.73-13.41-60.79a126.84,126.84,0,0,0-27.86-52.93c-28.89-32.63-69.29-54.46-105-78.56-30.12-20.44-60.49-40.32-91.59-59.13-73.42-44.58-152.37-89.38-237.75-107.29a269.5,269.5,0,0,0-55.91-6.35c-7.85,0-15.81.55-23.63,1.07a24.26,24.26,0,0,1-9.68-.14,27.68,27.68,0,0,1-5.67-4.3,115,115,0,0,0-15.2-8.93,213.57,213.57,0,0,0-43.87-17.41,129.87,129.87,0,0,0-82.31,4.55c-26.33,10.59-48.31,28.7-67.39,49.48-6.53,7.17-12.87,14.6-18.76,22.44a325.59,325.59,0,0,0-32.29-20.44q-9-5-18.08-9.67c3.74-4.11,7.39-8.28,11.13-12.39,29.13-32.82,58.49-66.34,97.33-87.79a232,232,0,0,1,31.69-14.44,184.87,184.87,0,0,1,31.39-9,114.18,114.18,0,0,1,48.53,1.73,210.6,210.6,0,0,1,43.61,18.32c16.13,8.46,31.92,17.42,48.32,25.11,41.64,19.64,85.68,30.89,129.78,40.61s88.79,18.4,131.92,33.86a9.74,9.74,0,1,0,19.47.11,8.75,8.75,0,0,0-.73-3.75,11.57,11.57,0,0,0-1.4-2.4,9.8,9.8,0,0,0-13.72-1.65A9.9,9.9,0,0,0,2766,1006c0,.08,0,.22-.08.31-5-1.83-10-3.53-15.12-5.13-43.88-14.16-88.88-22.2-133.37-32.43-22.46-5.14-44.92-11-67-18.39a442.26,442.26,0,0,1-60.6-25.68c-29.21-15-58.17-34.29-90.68-38.84a124.47,124.47,0,0,0-52.09,4.43,232.08,232.08,0,0,0-63.5,29.06c-37.3,24.53-65.67,59.8-95.41,92.81a654.63,654.63,0,0,0-74.55-32.55c-31.69-11.49-65.77-22.65-99.46-25.47-29-2.43-57.7,2.93-85.56,10.44-27.53,7.36-54.56,16.87-82.8,21.71-14.71,2.5-29.38,2.61-44.14,3.75a322.32,322.32,0,0,0-46.22,6.83,466.27,466.27,0,0,0-87.87,30.83c-32.14,14.39-65.49,27-96.28,44.22-28,15.6-53.65,36.07-68.7,65-15.08,29.15-25.35,61.91-33.92,93.4a747.33,747.33,0,0,0-24.1,173.24c-8.81,3.23-17.67,6.53-26.43,10-9.42,3.77-19.21,7.55-29.68,6.27-13.64-1.6-26.43-10.71-38-19.34-13-9.72-25.21-20.75-38.3-30.3-14-10.31-29-18.27-43.68-27.17a339.81,339.81,0,0,1-38.08-26.17c-9.94-8.15-19.48-17.24-29.15-25.81a277.37,277.37,0,0,0-31.12-24.85A77,77,0,0,0,1150,1256a8,8,0,0,0-8.12-7.64,7.29,7.29,0,0,0-1.69.18,7.66,7.66,0,0,0-5.6,5.27,7.88,7.88,0,0,0,14.75,5.49,46.41,46.41,0,0,1,6.28,2.31,145.67,145.67,0,0,1,30.93,20.86c10.3,8.51,20.23,17.75,30.25,26.68a285.57,285.57,0,0,0,31,24.29c14.34,9.68,29.13,18.33,43.86,27.06a329.73,329.73,0,0,1,40.26,29.2,236.8,236.8,0,0,0,38.15,27.31,48,48,0,0,0,30.45,5.82c11.08-1.94,21.29-7.24,31.68-11.2,4-1.51,8.12-3.09,12.23-4.54-.14,4.49-.22,8.9-.21,13.37-.4,33.14.61,66.15,7.15,98.66q1.24,6.47,2.92,12.83c-2.73-2.92-5.37-5.8-8.16-8.64-29.15-30.64-59.92-60-94.37-84.52a379.86,379.86,0,0,0-54.27-32.38,313.3,313.3,0,0,0-29.69-12.67,199.79,199.79,0,0,0-31.68-8.47c-21-3.91-42.38-5.66-63-11.16a172.48,172.48,0,0,1-31.11-12.17c-9.41-4.66-18.5-9.59-27.43-15.13a150.09,150.09,0,0,1-43.84-38.73c-11.26-15.68-17-34.15-23-52.3a575.74,575.74,0,0,0-20.2-56.44c-7.64-17.1-17.56-33.68-32.06-46a9.95,9.95,0,1,0-13.14,5,9.87,9.87,0,0,0,10.68-1.72,92.37,92.37,0,0,1,9.11,9c12.93,14.63,21.23,32.9,28,50.88,7,18.6,12.36,37.65,18.94,56.33a174.52,174.52,0,0,0,10.76,25.71,120.54,120.54,0,0,0,16.66,23.05,186.74,186.74,0,0,0,47.51,35.43,288.88,288.88,0,0,0,28.88,14.41,164.81,164.81,0,0,0,30.68,9.24c21,4.41,42.65,6,63.59,11a258.32,258.32,0,0,1,60.5,24.4,406.3,406.3,0,0,1,53.29,34.37c34,25.68,64.18,56,93.14,87.07a1.75,1.75,0,0,0,1.91.56c6.71,24.56,16.18,48.07,25,72.14,24.3,66.09,20.52,139.29,47.32,204.53,53,129.14,189.71,194.42,265.88,306.83,1.4,2,4.46-.36,3.06-2.4a508.9,508.9,0,0,0-62.53-73.78C1687.27,1998,1634,1956,1590.14,1904.84a346.32,346.32,0,0,1-54.3-82.58c-14.36-31.64-20.81-65.54-26.34-99.55-5.34-32.67-9.82-65.73-19.38-97.51-4.91-16.34-11.95-31.82-17.8-47.83A375,375,0,0,1,1448,1432.71a923.46,923.46,0,0,1,4.9-95.61,643.41,643.41,0,0,1,47.26-185.6,139,139,0,0,1,28.45-43.78,193.21,193.21,0,0,1,42.1-31.3c30-17.06,62.54-29.23,93.93-43.4,28.8-13,58.32-24.95,89.26-32.19a319.91,319.91,0,0,1,43.75-6.92c15-1.33,30-1.22,44.83-3.53,55.88-8.63,108.23-36.16,165.87-33.1,34,1.73,68.36,12.93,100.25,24.31a658,658,0,0,1,94.71,42.53,323.25,323.25,0,0,1,36.4,22.74A297.17,297.17,0,0,0,2208.9,1098c-10,21.25-17.88,45.11-16.93,68.91-12.25-6.69-26.54-10.18-39.5-14.58-24.66-8.31-49-18.35-72.93-28.68-69.75-30.17-137.2-82.54-217.4-74.15A179.83,179.83,0,0,0,1762,1095.7c-6.92,6.32-13.36,12.47-23,14-11,1.72-19.34-3.52-29.62-6-15.09-3.55-32,4.48-44.74,11.79-32.14,18.49-58.8,46.94-82.09,75.39-8.26,10.1-16.2,20.43-23.69,31.18a220.85,220.85,0,0,0-27,57.18c-11.13,42.07-11.37,86.42-9.24,129.59,2.25,46-.38,95.16,15.47,139.26,3.85,10.56,10,19.75,15.26,29.59a145,145,0,0,1,12.22,37.32,655.84,655.84,0,0,0,21.75,75.94c18.17,50.86,41.73,99.44,65.74,147.72,12.1,24.44,24.81,48.7,38.83,72.26,13.74,23.27,32,42.25,51.62,61.36,8.55,8.42,17,16.87,25,25.81,14.2,15.61,28.58,32.92,36.44,52.93,3,10.8,3.59,6.28,11.57,13.23a180.1,180.1,0,0,1,34.47,42.07c5.31,8.41,10.45,17.06,16.2,25.16a185.75,185.75,0,0,0,15.16,18.31,305.07,305.07,0,0,0,40.63,36,357.54,357.54,0,0,0,50.31,31.64,224.72,224.72,0,0,0,45.17,17.44,284.29,284.29,0,0,0,154.38-1,527.73,527.73,0,0,0,98.84-40c4.59-2.34,9.23-4.75,13.82-7.08a17.84,17.84,0,1,0,8.56-28.25,11.23,11.23,0,0,0-5.07,3.58c-8.85,10.8-8.07,16.63-5.69,21.49-4.37,2.36-8.76,4.59-13.15,6.81-4.06,2.09-8.21,4.12-12.35,6.15a475.28,475.28,0,0,1-97.33,36.63,283.87,283.87,0,0,1-102.51,5.89,278.28,278.28,0,0,1-53.66-12.19,246.48,246.48,0,0,1-45.4-21.58,368.19,368.19,0,0,1-45.59-31.84,260.82,260.82,0,0,1-37.11-36.36c-11.54-14.18-20-30.54-30.26-45.62a149.26,149.26,0,0,0-16.53-20.56,140.17,140.17,0,0,0-19.13-16.17,137.51,137.51,0,0,0-23.49-41.17c-26.06-32.9-61.2-58.41-84.78-93.37-14.67-21.72-26.55-45.77-38.43-69.11-12.35-24.25-24-48.77-35.72-73.3-22.54-47-43.24-96.48-54.89-147.52-2.82-12.27-5.22-24.63-8.79-36.68a150.42,150.42,0,0,0-14.73-30.56c-13-22.9-16.76-49.91-19.23-75.57-1.47-15-2-30.08-2.36-45.14-.63-27-2.68-53.8-2.17-80.84.76-42.07,5.22-88.39,28.08-125a442.79,442.79,0,0,1,64.08-79.09,261.05,261.05,0,0,1,43-35.29c13.58-8.69,32.66-19.1,49.33-14.49,8.53,2.37,16,6.55,25.1,6.07a35.55,35.55,0,0,0,21.32-8.18c7.66-6.17,14.38-13.09,22.34-18.82a214.87,214.87,0,0,1,26.63-16.41,165.5,165.5,0,0,1,101.13-16c34.69,5.43,67.48,19.95,98.38,36.2,21.43,11.32,42.53,22.78,64.69,32.66,23.91,10.7,48.37,20.21,73,29.33,15.75,5.8,34.81,9.37,49.69,18.43a44.81,44.81,0,0,1,12.28,10.22c8,9.25,12.62,20.81,18.3,31.52,6,11.3,12.34,22.31,18.41,33.52,25.26,47,49.74,94,78.71,138.86a395.73,395.73,0,0,0,48.14,62.75,176.61,176.61,0,0,0,26.78,22.52c9.64,6.63,19.29,12.89,26.76,22,14.46,17.72,23.39,39.54,31.32,60.69s15,42.54,24.09,63.17c19.95,45.18,38.22,92.12,44.19,141.39,5.55,46,3.22,96.62-15.15,139.59-9.41,22-22.19,42.2-28.64,65.36-6.62,23.76-11.21,47.56-21.6,70.11-20.35,44.29-55.14,78.36-94.81,105.52-2,1.4.36,4.46,2.39,3.06a331.8,331.8,0,0,0,52.35-43.46,232.72,232.72,0,0,0,40.47-56.77c11.36-22.74,17.14-46.7,23.32-71.24a187.91,187.91,0,0,1,13.32-36.37c5.22-10.6,10.76-21,15.51-31.76a225.92,225.92,0,0,0,16.62-63.81,324.71,324.71,0,0,0-9.61-129.88,708,708,0,0,0-30.15-82.46c-9.36-21.88-17.82-43.86-26-66.26-7.73-21.26-16-42.85-28.9-61.59a94.62,94.62,0,0,0-22.89-23.28,297.35,297.35,0,0,1-26.52-19.34c-21-18.89-38-41.95-53.48-65.38s-29.92-47.2-43.47-71.66c-13.21-23.87-25.78-48.15-38.6-72.23-6.34-11.88-13.16-23.6-19.5-35.47-5.35-10.13-9.9-20.91-17.06-30a52.13,52.13,0,0,0-12.89-11.47,108.78,108.78,0,0,1,2.72-30.85c6.51-29.5,21.52-57.13,38.63-81.78q2.59-3.85,5.45-7.54a176.31,176.31,0,0,1,42.75,44.64,572.72,572.72,0,0,1,46,90.75c26,62.29,46.57,127.3,80.45,186a379.92,379.92,0,0,0,26.38,40.11c10.27,13.56,22,25.69,33.58,38.21a285.28,285.28,0,0,1,51.75,82.43c13.23,31,24.79,62.68,38.16,93.65,13.47,31.16,27.28,62.19,39.23,94a505.38,505.38,0,0,1,33.15,189.42c-.58,30.73-3.58,62-12.62,91.48-7.39,24.21-33.74,70.24-41.73,81-18.47,24.69-37.85,48.77-58.63,71.54-22,24.09-43.71,49.41-70.71,68-28.45,19.65-60.6,30.29-92.07,43.68-28.27,12-55.83,25.91-83.83,38.63-28.39,12.93-57.49,25.15-87.85,32.42a153.58,153.58,0,0,1-41.1,5.32,149.05,149.05,0,0,1-38.79-7.23c-3-.93-4.24-1.77-12.79-4.28-21.54-7.77-42.2-17.73-63-27.3.2-.11,0,0-4-1.83-10.43-4.74-21-9.46-31.74-13.56-13.46-5.1-27.53-8.2-41.38-12-14.59-3.93-29.43-8.75-41.19-18.5-14.25-11.78-25.29-27.43-35.58-42.57-19.84-29.06-38.68-58.9-70.14-76.62-2.11-1.18-4.45,1.94-2.35,3.12,32.82,18.4,51.54,50.2,72.34,80.16,9.72,14,20.18,28.2,33.38,39,11.49,9.44,25.8,14.51,40,18.39s28.2,6.83,41.87,12c10.63,3.91,21.12,8.57,31.47,13.26M2772.8,1004a5.91,5.91,0,1,1-2.41,9.11,10.88,10.88,0,0,1-.85-1.42,6,6,0,0,1,3.26-7.69h0M986.18,1155a6,6,0,0,1-1.29-11.85,6.79,6.79,0,0,1,1.69-.19,6,6,0,1,1-.4,12M2294.59,2162.51a14,14,0,1,1-8.31,18l-.08-.05a13.92,13.92,0,0,1,8.11-17.93c.14,0,.22,0,.28-.06M2623,2007.83c9.89-28.79,13.63-59.55,14.88-89.83a525.6,525.6,0,0,0-5.2-96.38c-9.62-66.2-36.28-127.37-62.8-188.2-13.72-31.69-26.22-63.76-39.2-95.67-12.37-30.3-27.61-59-49-84.06-11.35-13.2-24-25.23-34.93-38.88a381,381,0,0,1-28.86-42.14,693.21,693.21,0,0,1-45.2-95c-25.42-63-46.87-128.84-84-186.23a180,180,0,0,0-43.46-45.36,249.18,249.18,0,0,1,51-51.84c24.22-17.67,53.38-28.89,83.63-27.78,29.17,1.1,59.81,12.36,84.19,28.08,4.2,2.71,7.81,7.2,13,7.7a74.4,74.4,0,0,0,12.65-.51c9.05-.54,18.18-1,27.24-.69,37.52,1.42,74.52,11.66,109.56,24.45,78.2,28.74,150.66,72.78,220.22,117.9,35.35,22.88,70.73,45.89,105.24,70a233.47,233.47,0,0,1,47.59,41.75c14.16,17.27,21,36.61,26.34,58,20.14,81.37,24.18,165.52,42,247.35,8.41,38.85,20.69,76.8,31,115.13,5.28,19.72,10.22,39.58,13.77,59.71a151.52,151.52,0,0,1,2.69,45c-3.45,27.83-14.3,54.64-26.22,80q-15.87,33.45-34.55,65.35c-22.2,38.1-43.1,76.24-69.69,111.37a477.45,477.45,0,0,1-85.3,88.18,328.74,328.74,0,0,1-51.07,33.34,254.43,254.43,0,0,1-24.47,10.88,6.17,6.17,0,0,1-6.62-1.45c-6.42-6.75-12.91-13.41-19.33-20.16a728.74,728.74,0,0,1-52.53-61.6,100.64,100.64,0,0,0-17.32-18.68,77,77,0,0,0-25.23-12.31,123.61,123.61,0,0,0-61.05-4.63c-15.88,3.16-31.05,9.2-46.34,14.7a313,313,0,0,0,27.36-57.55" transform="translate(-426.47 -884.84)"/><path id="Trazado_1485" data-name="Trazado 1485" class="cls-4" d="M1949.14,2090.78a10.47,10.47,0,0,1,20.09-5.63,10.42,10.42,0,0,1-19.43,7.52c0-.14-.11-.2-.14-.33a4.29,4.29,0,0,1-.52-1.56m16.47-3.13a7.19,7.19,0,0,0-.27-1,6.36,6.36,0,1,0,.27,1" transform="translate(-426.47 -884.84)"/><path id="Trazado_1486" data-name="Trazado 1486" class="cls-4" d="M1755.79,1943.6a6.53,6.53,0,0,1,4.06-7.28h0a6.44,6.44,0,1,1-3.87,8.25,5.05,5.05,0,0,1-.19-1m5-4.86a3.87,3.87,0,1,0,5,2.27,3.93,3.93,0,0,0-5-2.27" transform="translate(-426.47 -884.84)"/><path id="Trazado_1487" data-name="Trazado 1487" class="cls-4" d="M1794.11,1956.53a5.59,5.59,0,1,0,7.19,3.29h0a5.79,5.79,0,0,0-7.19-3.29" transform="translate(-426.47 -884.84)"/><path id="Trazado_1488" data-name="Trazado 1488" class="cls-4" d="M1996.24,2101.44a12.39,12.39,0,1,0,7.35-15.91,12.44,12.44,0,0,0-7.35,15.91h0" transform="translate(-426.47 -884.84)"/><path id="Trazado_1494" data-name="Trazado 1494" class="cls-4" d="M682.81,2145.75a111.3,111.3,0,0,0,9.28,37,182.91,182.91,0,0,0,20.53,34.84c7.19,9.91,15,19.19,22.48,28.91,7.27,9.61,14.48,19.3,22.56,28.25a85.1,85.1,0,0,0,25.71,20.71c19.23,9.23,40.92,7.83,61.29,12.15,6.89,1.4,13.73,3.6,20.52,5.52,7.09,2,14.09,4,21.21,5.75a384.66,384.66,0,0,0,48.79,9.75,145.12,145.12,0,0,0,47.32-.78,58.8,58.8,0,0,0,35.42-20.49c11.48-14.7,13.08-33.88,13.12-51.83a306.37,306.37,0,0,0-10.48-76.91c-3.18-12.27-7-24.5-11.26-36.42a336.54,336.54,0,0,1-11.76-40.5A606.82,606.82,0,0,1,986,2018.45c-1.06-13.26-1.49-26.58-3.11-39.73a110.53,110.53,0,0,0-6.84-27.78,90.07,90.07,0,0,0-29.66-39.18,100.15,100.15,0,0,0-44.53-17.85,141.61,141.61,0,0,0-52,2.1,169.22,169.22,0,0,0-52.42,21.21,205.38,205.38,0,0,0-48.15,41.71,281.41,281.41,0,0,0-36.52,55.21,333,333,0,0,0-24,61.86,296.91,296.91,0,0,0-10.59,61.49c-.15,2.55,3.81,2.57,3.91.1a282.83,282.83,0,0,1,3.4-28.82,327,327,0,0,1,16.78-61.18,317.43,317.43,0,0,1,29.58-58.69,242.71,242.71,0,0,1,41.22-48.79,179.08,179.08,0,0,1,50.24-31.73,160.09,160.09,0,0,1,51.57-11.9,119.56,119.56,0,0,1,48.16,6.92,85.6,85.6,0,0,1,37.38,27.38,97.86,97.86,0,0,1,18.68,49c1.51,13,2,26.19,3,39.17,1.14,13.68,2.43,27.34,4.13,40.91a391.78,391.78,0,0,0,18.09,80.47,411.07,411.07,0,0,1,19.33,72.75,270,270,0,0,1,3.37,38.46,141.38,141.38,0,0,1-2.56,32.41,50.59,50.59,0,0,1-23.76,33.07c-12.52,7.11-27.26,9.11-41.37,9.12a233.46,233.46,0,0,1-48-5.5c-14.85-3-29.53-7-44.15-11.09-6.48-1.83-12.85-3.84-19.41-5.37a294.18,294.18,0,0,0-30.43-4.24,103.69,103.69,0,0,1-29.73-6.9,77.08,77.08,0,0,1-25.85-19.61,332.82,332.82,0,0,1-22.21-27.53c-7.27-9.6-15-18.77-22.17-28.46-15.61-21-28.79-45.12-30.56-71.64-.27-2.47-4.23-2.49-4.05-.08" transform="translate(-426.47 -884.84)"/><path id="Trazado_1495" data-name="Trazado 1495" class="cls-4" d="M820.93,2413.09a350.83,350.83,0,0,0,39,32.19c29.62,19.74,63.37,31.77,96.61,43.82s66.92,27.76,103.2,21.36a184.74,184.74,0,0,0,37.84-11.75,239,239,0,0,0,41.16-21.33,92.46,92.46,0,0,0,26.93-24.54,96.74,96.74,0,0,0,14.83-39.69c4.57-29.49-.87-59.69-6.09-88.79-2.56-14.27-5.34-28.56-7.15-43.05-1-8-1.49-16.21-2.42-24.31-1.25-10.13-3.13-20.21-5.35-30.15-8.48-38-22.9-74.43-33.82-111.71a418.25,418.25,0,0,1-13.3-58.79,403,403,0,0,1-2.65-63.66c.42-37.47,1.88-75.21-2.42-112.48a265.59,265.59,0,0,0-33.41-103.36,186.47,186.47,0,0,0-33.08-43.78,146.78,146.78,0,0,0-38.6-25.56,157.44,157.44,0,0,0-91.41-12.2c-35,6.08-67.45,25.07-94.83,46.89a394.61,394.61,0,0,0-76.7,83.49c-10.42,14.92-19.58,30.45-28.45,46.3-9.81,17.39-19.72,34.59-29.19,52.2-18.55,34.66-35.58,71.18-42.11,110.19-6.45,38.35-4,77.5-7.45,116.2-.24,2.5,3.67,2.6,3.91.1,1.68-18.4,2-37,2.54-55.45a444.67,444.67,0,0,1,4.45-57.56A267.39,267.39,0,0,1,659,1981.24c14.12-35.6,33.52-68.83,52.33-102.09,18.23-32.22,37.73-63.09,62.29-90.92s53.07-52.74,86-70.23c29.54-15.54,61.51-23.77,95-19.76a149,149,0,0,1,85.08,39.29,188.73,188.73,0,0,1,32.24,43.94,247.3,247.3,0,0,1,21.83,51.15c10.18,34.26,12.4,70.13,12.57,105.83.15,38.58-3.22,77.55,1.87,116,5.14,38.69,17.78,75.56,29.93,112.46,5.84,17.81,11.56,35.79,16,54.09a389.86,389.86,0,0,1,8.69,55.43c2.9,28.61,10.07,56.61,13.52,85.11s3.7,59.43-11.17,84.87a83,83,0,0,1-26.54,26.48,237.55,237.55,0,0,1-38.75,20.79,192.16,192.16,0,0,1-38.95,12.68,115.5,115.5,0,0,1-52.3-2.94c-17-4.56-33.27-11.47-49.72-17.5S926.05,2474,910,2467.24a289.86,289.86,0,0,1-46.91-24.52,329.56,329.56,0,0,1-39.26-32.28c-24.95-22.37-50.55-44-74.91-67.05-48.32-45.86-98.5-101.65-106.25-170.81-.26-2.47-4.17-2.58-3.91-.11a179.72,179.72,0,0,0,11.46,46c12.61,31.9,32.81,60.25,55.31,85.91a848.15,848.15,0,0,0,77.11,75.06c12.84,11.19,25.67,22.38,38.32,33.68" transform="translate(-426.47 -884.84)"/><path id="Trazado_1496" data-name="Trazado 1496" class="cls-4" d="M764,2498.57c19.77,11.28,41,19,62.21,26.88,80.71,29.83,168.61,60.29,255.55,41.74a244.41,244.41,0,0,0,61.19-22.06c18.91-9.79,36.76-21.76,55.06-32.45a235.94,235.94,0,0,0,43-30,105.64,105.64,0,0,0,27.88-43.31,371,371,0,0,0,14.38-67.63,490,490,0,0,0,4.53-68.59c-.27-48.07-6.1-97.72-23.91-142.66-18.56-46.89-46.22-89.92-60.44-138.59-13.89-47.73-18.69-97.65-22.11-147.12-1.57-23.25-2.5-46.55-3.7-69.8a328.17,328.17,0,0,0-8.88-67.14,153.33,153.33,0,0,0-29.71-58.77,147.78,147.78,0,0,0-51.13-38.83c-8.83-4.26-17.9-8-27-11.9-9.69-4.24-20.29-8.38-28.46-15.22-15.63-13-18.65-33.32-23.68-51.79-3.32-12.25-7.78-24.43-17.58-33A51.19,51.19,0,0,0,965,1516.71c-24.42-3.68-49.89,4.23-72.35,13.2a428.72,428.72,0,0,0-72.24,37.89,354.55,354.55,0,0,0-60.17,48.43,313.85,313.85,0,0,0-41.1,50.56,171.35,171.35,0,0,0-15.71,28.84,239.43,239.43,0,0,0-9.63,30.91c-5.64,21.76-11.49,42.42-24.32,61.27-11.77,17.27-26.41,32.36-39,49.07-13.64,18.07-22.31,38.27-30.55,59.25A412.74,412.74,0,0,0,578.58,1965c-18.24,91.07,14,182.33,11.12,273.59a1.84,1.84,0,0,0,2,1.84,1.9,1.9,0,0,0,1.87-1.87,487.37,487.37,0,0,0-2.62-64.61c-4.3-45.13-12.21-89.91-13.74-135.21a322.25,322.25,0,0,1,3.82-66.29,376.94,376.94,0,0,1,19.87-68.62c8-21,16.34-42.29,29.48-60.69,12.07-16.83,26.46-31.73,38.7-48.44a161.88,161.88,0,0,0,25.43-56.31c5.61-21.18,10.82-41.43,22.1-60.48,32-53.69,80.47-94.09,134.8-124,23.57-12.94,48.48-24.48,74.72-30.66,20.19-4.72,45.5-6.83,62.2,7.93,10.43,9.21,14.3,22.44,17.69,35.46,4.49,17.14,8.25,35.35,21.91,47.83a92.52,92.52,0,0,0,24.33,14.36c8.85,4,17.93,7.75,26.84,11.71,19.89,9,38.13,20.17,52.91,36.53,32,35.48,39.25,81.84,41.63,127.84,2.39,46.36,4.25,92.6,10.18,138.7a532.37,532.37,0,0,0,13.62,71.55,382.75,382.75,0,0,0,24.31,64.64c10.88,23,22.77,45.64,32.94,69a310.51,310.51,0,0,1,21.79,72.12,484.9,484.9,0,0,1-8.35,206.78,106.09,106.09,0,0,1-26.81,49.22c-12.27,12.47-27.3,21.88-42.3,30.7-17.33,10.14-34.37,21.09-52,30.92a248.06,248.06,0,0,1-125.69,30.41c-43.46-.84-86.14-11.06-127.48-24-21.1-6.63-42-14.09-62.79-21.72-22.34-8.19-44.56-16.19-65.22-27.95a1.91,1.91,0,1,0-1.88,3.32" transform="translate(-426.47 -884.84)"/><path id="Trazado_1497" data-name="Trazado 1497" class="cls-4" d="M608.38,2434.74c1.45,10,2.75,20.07,4.83,30a183.47,183.47,0,0,0,6.62,23.27,310.54,310.54,0,0,0,23.27,50.08,361.26,361.26,0,0,0,31.4,46.63A233.56,233.56,0,0,0,710,2621a289.86,289.86,0,0,0,146.48,63.58,542.69,542.69,0,0,0,108.41,2.92c5.27-.31,10.54-.61,15.78-1.05a18.16,18.16,0,1,0-.63-5.86,8.37,8.37,0,0,0,0,1.94c-5,.34-10,.72-15.07,1.06-4.63.25-9.27.5-14,.7a479.48,479.48,0,0,1-105.64-5.4,289.07,289.07,0,0,1-98-36.28,281.24,281.24,0,0,1-45.06-33.17,255.08,255.08,0,0,1-33.57-38.56,378,378,0,0,1-29.61-48.2,252.74,252.74,0,0,1-19.76-49c-5-18-6.32-36.59-9.72-54.8a147.47,147.47,0,0,0-7-25.86,154,154,0,0,0-14.3-28c-.72-1.09-4.73-29.12-8.37-43-10.92-41.38-33.35-79.31-41.11-121.45-4.88-26.21-6.15-53.48-7.78-80-1.62-27.64-2.53-55.27-3.51-83-1.88-53-1.11-107.62,8.76-159.82,2.32-12.55,5.13-25.13,6.64-37.74a146.19,146.19,0,0,0-1.36-34.46c-2.59-23.7,3.11-47.35,10.11-69.89,7.25-23.09,16.58-45.51,25.39-68,7.84-20,15.24-40.13,24.2-59.66,17.93-38.93,40.79-80.33,77-105a458.38,458.38,0,0,1,91.92-47.76,268.2,268.2,0,0,1,54.34-15.46c16.15-2.49,38.29-4.56,51.83,6.49,7,5.7,12.24,12.6,21,16a36.26,36.26,0,0,0,23.18,1c9.58-2.58,18.73-6.3,28.48-8.41a200.52,200.52,0,0,1,31.55-4.41,167.83,167.83,0,0,1,100.76,26.23c30.24,19.19,54.84,46,77,73.78,15.35,19.27,30.47,38.52,47,56.69,18,19.71,36.88,38.5,56.11,57,16,15.4,39.19,29.7,46.12,52,3.68,11.89,3.33,24.56,4.21,36.86,1,13,2.49,25.8,3.51,38.79,4.45,54,8.2,107.82,16.9,161.46a407.46,407.46,0,0,0,19.35,78.06,175,175,0,0,0,15.78,31.87c6.27,10,12.73,19.93,16,31.4,6.37,22.39,5.77,46.35,4.48,69.37s-3.35,45.74-3.23,68.62c.7,50.29-1.38,101.48-16,149.91-13.5,45.05-36.33,91.41-70.9,124.07-17.65,16.68-37.83,30.33-53.24,49.24-15.81,19.5-29.73,39.78-48.65,56.57-37,33-83.23,50.61-131.37,59.75-2.5.49-1.47,4.32,1,3.78a342.6,342.6,0,0,0,66.56-19.28,235.51,235.51,0,0,0,60.82-36.53c19.34-16.15,34.23-35.54,49.53-55.37a187.78,187.78,0,0,1,26.64-28.59c9.78-8.24,19.78-16.09,29.12-24.75a231.68,231.68,0,0,0,43.24-55.87,338.58,338.58,0,0,0,43.34-131.32,724.66,724.66,0,0,0,4.14-79.46c.19-24.24,1.24-48.14,2.73-72.35,1.39-22.82,2.49-46.08-1.82-68.65a92.93,92.93,0,0,0-11-29.85c-5.94-10.16-13-19.74-17.81-30.47-11.92-26.13-18.4-54.63-23.29-82.78s-8.69-56.15-11.45-84.43c-2.7-27.64-4.41-55.33-6.7-83-1.15-13.68-2.71-27.28-3.72-41-.82-11.66-.76-23.55-3.69-34.94-5.71-21.58-25.36-35.2-41-49.51-19.6-17.8-38.24-37-56.33-56.33-52.7-56.53-94.31-132.72-172.53-157.5a182.28,182.28,0,0,0-112.2,2.36c-9.06,3.06-17.59,6.23-27.09,3.68-11-2.83-16.58-11.18-25.25-17.63-12.65-9.5-31.6-8.77-46.56-7.16-37.52,4.12-73.86,19.9-107.15,36.89A461.19,461.19,0,0,0,681.86,1496a172.19,172.19,0,0,0-42.18,39.11c-26.89,34.32-44.89,75.14-60.2,115.71-16.63,43.79-39,88.63-42.2,136.07-.73,11.45,1.26,22.44,2.17,33.79a147.72,147.72,0,0,1-3.79,39.78A687,687,0,0,0,525,1940.16c-3.77,54.75-1.51,109.71,1.21,164.5,1.38,27.83,3.39,55.6,6.82,83.24a264.65,264.65,0,0,0,16.48,61.42c8,20.92,16.77,41.47,23.4,62.94,6.38,20.59,10.19,49.46,12.23,55.54,2.83,4.56,5.53,9.16,8,13.94,8.79,16.66,12.57,34.65,15.27,53m390.73,232.79a14.23,14.23,0,1,1-14.63,17.75,15.6,15.6,0,0,1-.42-4.38,14.31,14.31,0,0,1,15.05-13.37" transform="translate(-426.47 -884.84)"/><path id="Trazado_1498" data-name="Trazado 1498" class="cls-4" d="M1419.08,2600.88a531.09,531.09,0,0,0,34.33-92c18-65.52,18-133.44,18.06-201-.06-35.14,1.49-70.16,2.32-105.19.79-33.36-1.72-66.3-11.53-98.25-5.18-17-12.16-33.29-16.81-50.54a375.91,375.91,0,0,1-9.8-51.11,704.4,704.4,0,0,1-3.44-107c1.9-69.16,8.69-139.13-2.65-207.81-5.88-35.81-24.21-67.11-45.82-95.69a678.45,678.45,0,0,0-71.6-80c-24.89-23.55-52-47.88-82.42-64.16-26-14-55-20.71-84-25.08-28.71-4.29-57.74-6.5-86-13.39-14.68-3.63-28.43-9.53-42.71-14.46a324.4,324.4,0,0,0-45.92-12.4,475.54,475.54,0,0,0-94.43-7c-35.81.34-72-1.41-107.79,2.08-32.44,3.21-64.77,11.8-90.46,32.71-25.88,21-48.79,47.31-69.59,73.32-40.94,51-73.37,108-100.26,167.59-13.84,30.71-26.29,61.87-33.41,95-6.91,32.25-7.5,64.42-9.48,97.22-4.19,71.48-37.47,138.17-39.08,209.94-2.85,141.74,98,258.22,123.32,393.9.48,2.5,4.26,1.55,3.78-.95a517.38,517.38,0,0,0-28.26-94.21c-25-63.65-57.54-124.45-77.77-190a354.82,354.82,0,0,1-17-99c-.53-35.34,7.23-69.55,16-103.59,8.36-32.6,17.49-65.28,21.56-98.85,2.06-17.18,1.79-34.49,2.83-51.76A380.81,380.81,0,0,1,507,1664.37a923.19,923.19,0,0,1,43.49-87.19A654.78,654.78,0,0,1,670.1,1423.34a139.11,139.11,0,0,1,44.31-29.21,198,198,0,0,1,52-12.12c34.94-3.69,70.18-1.76,105.24-2.23,32.18-.49,64.62.4,96.32,6.34a320.84,320.84,0,0,1,43.62,11.33c14.48,4.82,28.46,11.11,43.25,14.94,55.58,14.69,115.6,10.3,168.1,36.55,31,15.5,58.44,39.78,83.55,63.35a682.34,682.34,0,0,1,71,78.18c22.69,29.3,42.32,61.36,48.39,98.51a580.47,580.47,0,0,1,6,103.2c-1.06,68.64-8.26,137.61-.56,206.13a402.48,402.48,0,0,0,8.29,48.17c4.07,16.85,10.05,32.83,15.76,49.23a290.28,290.28,0,0,1,14.7,97.84c-.33,34.28-2.45,68.55-2.5,102.78-.1,34.67.15,69.34-1.64,103.83a515.83,515.83,0,0,1-46.1,190.13c-13,28.38-28.6,56.34-49,80.11-20.18,23.66-45.49,42.41-71.9,58.49a731.38,731.38,0,0,1-83.8,42.87c-30.22,13.51-60.84,28.32-93.6,34.69-34.57,6.72-68.75,3.57-103.61,3.21-31.31-.25-62.61,1.44-93.92,1.91-31.68.47-63.82,0-95.08-5.51a132.6,132.6,0,0,1-73.78-34.21c-21.43-18.31-39.67-39.9-58.31-60.91-8.57-9.65-17.2-19.21-26.42-28.08-10.48-10.2-22.3-18.78-33.74-27.94-12-9.55-23.94-20.13-31-34-8.45-16.8-12.37-35.85-15.88-54.26-6.68-35.15-12.15-70.68-34.26-100-1.55-2-4.91,0-3.37,2,23.08,30.53,27.65,67.75,34.94,104.15,3.37,17,7.36,34.51,15.26,50,6.8,13.52,18.2,24,29.83,33.39,11.46,9.3,23.5,17.91,34.21,28.15,9.74,9.34,18.81,19.32,27.74,29.32,19.16,21.49,37.88,43.64,59.85,62.2A147,147,0,0,0,823.75,2809c62.45,12.21,126.84,4.37,190,4.49,34,.1,67.66,3.42,101.39-2.06,33.11-5.28,63.45-19.32,93.84-32.72,57-25,117.08-53.59,159.88-100.23,20.89-22.57,36.93-49.75,50.26-77.55" transform="translate(-426.47 -884.84)"/><path id="Trazado_1503" data-name="Trazado 1503" class="cls-4" d="M1367.63,1770.31c-2.55-15.35-4.25-30-6.66-45.38a225,225,0,0,0-10.53-43.41,262.05,262.05,0,0,0-18.84-39.84,256.25,256.25,0,0,0-25.64-37.45,301.7,301.7,0,0,0-34.66-34.11c-24.43-20.82-50.81-39.46-73.13-62.71-2.78-2.85-5.46-5.86-8.05-8.81a2.25,2.25,0,0,0-1.21-.7,10.3,10.3,0,0,0,2.26-9.09,9.93,9.93,0,0,0-12.05-7.16,10.08,10.08,0,0,0-7.48,9.31,10,10,0,0,0,9.62,10.23,10.65,10.65,0,0,0,5.22-1.31,2.49,2.49,0,0,0,.55,2.06c21.14,24.27,47.11,43.35,71.79,63.62a383,383,0,0,1,35.55,32.42,226.58,226.58,0,0,1,28.39,37.49,273.76,273.76,0,0,1,20.45,39.61,200.54,200.54,0,0,1,12,42.11c2.64,14.68,5.68,36.64,8,52a2,2,0,0,0,2,1.62Zm-186.4-273a6,6,0,1,1,6.21-5.82h0a6.09,6.09,0,0,1-6.21,5.82h0" transform="translate(-426.47 -884.84)"/><path id="Trazado_1504" data-name="Trazado 1504" class="cls-4" d="M1896.63,1765a84.08,84.08,0,0,1-.47-26.49,81.47,81.47,0,0,0,1-11.86,63.49,63.49,0,0,1,2-16.39,26.57,26.57,0,0,1,21.29-18.32,20,20,0,0,1,20.33,9.37c9.49,14.72,20.06,35.72,21.33,50.81s-5.69,27-19.25,32.49c-14.9,6-32.94,2.15-42.17-9a24.09,24.09,0,0,1-4.07-10.59m61.58-17.44c-2.72-14-11.86-31.77-20.2-44.63a17,17,0,0,0-17.18-8,23.29,23.29,0,0,0-18.7,16.1,60.06,60.06,0,0,0-1.86,15.63,95.38,95.38,0,0,1-1,12.36c-1.51,8.51-1,28.43,4,34.39,8.32,10.2,24.83,13.61,38.45,8.08a27.12,27.12,0,0,0,17.22-29.27c-.16-1.56-.4-3.17-.7-4.69" transform="translate(-426.47 -884.84)"/><path id="Trazado_1505" data-name="Trazado 1505" class="cls-4" d="M1758.67,1846.51a5.87,5.87,0,1,1,6.89,4.64h0a5.85,5.85,0,0,1-6.89-4.64m8.33-1.62a2.68,2.68,0,1,0-2.12,3.15h0a2.78,2.78,0,0,0,2.12-3.15" transform="translate(-426.47 -884.84)"/><path id="Trazado_1506" data-name="Trazado 1506" class="cls-4" d="M1777.79,1860.73a4.24,4.24,0,1,1,3.36-5h0a4.35,4.35,0,0,1-3.36,5" transform="translate(-426.47 -884.84)"/><path id="Trazado_1507" data-name="Trazado 1507" class="cls-4" d="M593.34,2252.47a273.47,273.47,0,0,0,6.15,53.11,220.6,220.6,0,0,0,12.77,43.12c10.59,26,24.28,50,46.17,68.17,9.44,7.82,20.2,13.87,30.06,21.24,2,1.48,4.14-1.67,2.13-3.15-8.29-6.31-17.3-11.54-25.64-17.78a142,142,0,0,1-28.16-29.24,171.24,171.24,0,0,1-18.59-34.85,208.27,208.27,0,0,1-13.62-41.52,285.3,285.3,0,0,1-7.39-58.78c0-2.44-3.84-2.71-3.88-.32" transform="translate(-426.47 -884.84)"/><path id="Trazado_1508" data-name="Trazado 1508" class="cls-4" d="M910.39,1783.84a147.13,147.13,0,0,1,49.44-1.75c15,1.91,30.84,5.6,43.74,13.82,22.53,14.35,33.65,40.43,39.95,65.42a279.7,279.7,0,0,1,7.78,90.05c-2.52,34.13-8.58,68.15-5.8,102.48,1.3,16.31,1.63,32.82,3.51,49.16,1.69,15.74,4.48,32.34,12.78,46.14,1.27,2.06,4.69.39,3.42-1.67-7.78-13-10.49-28.43-12.16-43.31-1.72-15.15-2.16-30.41-3.25-45.61a342,342,0,0,1,.23-52.2c1.51-17.8,3.77-35.45,5.11-53.36a285.42,285.42,0,0,0-7.46-91.4c-6.14-24.53-16.54-49.88-37.26-65.66-12.92-9.81-29.15-14.36-44.86-17a150.55,150.55,0,0,0-55.78,1c-2.53.71-1.8,4.45.61,3.91" transform="translate(-426.47 -884.84)"/><path id="Trazado_1512" data-name="Trazado 1512" class="cls-4" d="M2049.77,1951.07a10.68,10.68,0,1,1,12.52,8.44h0a10.63,10.63,0,0,1-12.52-8.44m17.5-3.4a7.15,7.15,0,1,0-5.65,8.37,7.13,7.13,0,0,0,5.65-8.37" transform="translate(-426.47 -884.84)"/><path id="Trazado_1514" data-name="Trazado 1514" class="cls-4" d="M714.82,1938.77a9.41,9.41,0,1,1,11,7.44h0a9.36,9.36,0,0,1-11-7.44m14.58-2.83a5.37,5.37,0,1,0-4.25,6.3,5.36,5.36,0,0,0,4.25-6.3" transform="translate(-426.47 -884.84)"/><path id="Trazado_1516" data-name="Trazado 1516" class="cls-4" d="M854.89,2380.27a9.4,9.4,0,1,1,11,7.44h0a9.54,9.54,0,0,1-11-7.44m14.49-2.89a5.37,5.37,0,1,0-4.25,6.3,5.38,5.38,0,0,0,4.25-6.3" transform="translate(-426.47 -884.84)"/><path id="Trazado_1517" data-name="Trazado 1517" class="cls-4" d="M845.12,1812a8.63,8.63,0,1,1,6.82-10.12,8.59,8.59,0,0,1-6.82,10.12h0" transform="translate(-426.47 -884.84)"/><path id="Trazado_1518" data-name="Trazado 1518" class="cls-4" d="M1067.65,2159.26a7.07,7.07,0,1,1,5.59-8.29h0a7,7,0,0,1-5.59,8.29" transform="translate(-426.47 -884.84)"/><path id="Trazado_1519" data-name="Trazado 1519" class="cls-4" d="M1076,2248.11a7.07,7.07,0,1,1,5.59-8.29h0a7.18,7.18,0,0,1-5.59,8.29" transform="translate(-426.47 -884.84)"/><path id="Trazado_1523" data-name="Trazado 1523" class="cls-4" d="M837.44,1801.7c-16.57,7-34.82,11.38-50,21.31-18.4,12.07-29.07,32-36.86,52-3.35,8.72-5.9,17.85-9.49,26.41a219.62,219.62,0,0,1-14.69,27.85c-1.31,2.12,1.84,4.25,3.15,2.12,4.45-7.13,8.54-14.63,12.27-22.12a240.76,240.76,0,0,0,9.14-24.11A168.58,168.58,0,0,1,768.35,1848a77.18,77.18,0,0,1,19-20.26,102.91,102.91,0,0,1,21.94-11.25c10-3.89,20.06-7.22,29.9-11.43,2.28-.88.61-4.3-1.72-3.34" transform="translate(-426.47 -884.84)"/><path id="Trazado_1527" data-name="Trazado 1527" class="cls-4" d="M2069.92,1948.37c50.91-6.79,99.79-23.64,149.36-36.52,15.09-3.94,34.54-6.14,45.31-18.89,7.29-8.48,6.74-19.82,3.83-30-4.66-16.53-13.17-31.8-19.85-47.65-1-2.25-4.35-.52-3.42,1.68,5.75,13.64,12.72,26.91,17.61,41,3.47,9.69,6.45,21.72.16,30.87-9.22,13.31-29.42,15.37-43.75,19.09-23.53,6.09-46.86,13.14-70.34,19.51a604.07,604.07,0,0,1-79.63,17.21c-2.47.26-1.75,4,.72,3.74" transform="translate(-426.47 -884.84)"/><path id="Trazado_1529" data-name="Trazado 1529" class="cls-4" d="M890.61,1785.46a11,11,0,1,1,12.93,8.72h0a11,11,0,0,1-12.93-8.72m17.07-3.32a6.29,6.29,0,1,0-12.35,2.4,6.29,6.29,0,0,0,12.35-2.4" transform="translate(-426.47 -884.84)"/><path id="Trazado_1530" data-name="Trazado 1530" class="cls-4" d="M1073.25,2241.44c6.58,33.52,18.28,65.53,28.62,97.95,5.89,18.45,12.37,41-1,57.83a62.31,62.31,0,0,1-24.94,17,106.64,106.64,0,0,1-36.35,8.29c-27.41,1.29-54.83-5.26-80.92-13.09-28.93-8.78-56.91-20-85.65-29.31a2,2,0,0,0-2.42,1.27,1.87,1.87,0,0,0,1.09,2.3c26.58,8.52,52.46,19,79.15,27.34,27.08,8.49,55.47,15.94,84,15.51a112.55,112.55,0,0,0,36.23-6.32,81.25,81.25,0,0,0,28.66-16c14.55-13.7,14.71-33.25,10.09-51.45-4.5-18-11.37-35.53-17-53.23a509.75,509.75,0,0,1-15.8-58.66,2,2,0,0,0-2.24-1.51,1.78,1.78,0,0,0-1.45,2.15" transform="translate(-426.47 -884.84)"/><path id="Trazado_1531" data-name="Trazado 1531" class="cls-4" d="M750.27,2184.14a183.79,183.79,0,0,1,.5-65.65,235.51,235.51,0,0,1,22.41-66.66c11.63-22.43,35.73-53,65.28-65.13,12.2-5,26.17-8.76,36.68,1.94,20.55,20.86,23.37,53.88,25.4,78,.42,5.11.84,9.85,1.4,13.85a316.49,316.49,0,0,0,13.32,55.18c2.67,8.2,6.31,16.57,9.82,24.6,6.22,14.21,12.58,28.75,14.49,44.15,3.69,31.19-24.62,43.47-49.1,48.3-32.88,6.53-68.16,1.43-94.42-13.63a154.29,154.29,0,0,1-33.37-25.28c-7-7.28-9.46-16-11.68-26a16.49,16.49,0,0,0-.73-3.75M893.45,2035c-3.13-16.11-8.9-32.42-20.57-44.27-9.15-9.31-22-5.89-33.22-1.18-28.74,11.86-52.25,41.71-63.61,63.73A234.27,234.27,0,0,0,754,2119c-4.25,26-4.23,48.29.21,68.17,2.11,9.39,4.37,17.66,10.88,24.47a151.59,151.59,0,0,0,32.62,24.77c25.22,14.48,60.55,19.5,92.26,13.26,23.1-4.56,49.9-16,46.53-44.84-1.75-14.94-8.08-29.34-14.24-43.27-3.54-8.17-7.26-16.59-10-24.93a315.94,315.94,0,0,1-13.49-55.65c-.5-4.08-.95-9-1.36-14.07a272.62,272.62,0,0,0-4-31.86" transform="translate(-426.47 -884.84)"/><path id="Trazado_1532" data-name="Trazado 1532" class="cls-4" d="M798,2147.48a14.44,14.44,0,0,1-.27-1.74,71.73,71.73,0,0,1,9.88-47.38c4.92-7.65,20.84-27.68,35.15-27.79a15.26,15.26,0,0,1,13.14,7.89c4.42,6.85,4.31,13.28,4,21.4a102.18,102.18,0,0,0,1.27,22.81c2,11.22,7.66,23.87,12.7,35,6.94,15.29,12.47,27.47,5.8,30.93-17.33,9.06-45.63-.14-60.22-9.62A50.23,50.23,0,0,1,798,2147.48m58.73-59.89a21.72,21.72,0,0,0-3.09-7.76,12.53,12.53,0,0,0-10.81-6.68c-11.73,0-26.43,16.3-32.87,26.56a68.87,68.87,0,0,0-9.51,45.57,47.29,47.29,0,0,0,20.66,31.42c14,9.09,41.12,18.09,57.39,9.52,4.31-2.28-1.23-14.45-7.06-27.44-5.16-11.31-11-24.16-12.93-35.74a111.36,111.36,0,0,1-1.37-23.36,47.72,47.72,0,0,0-.41-12.09" transform="translate(-426.47 -884.84)"/><path id="Trazado_1534" data-name="Trazado 1534" class="cls-4" d="M2245.52,1825.21a8.63,8.63,0,1,1,6.82-10.12,8.58,8.58,0,0,1-6.82,10.12h0" transform="translate(-426.47 -884.84)"/><path id="Trazado_1536" data-name="Trazado 1536" class="cls-4" d="M1797.44,1966.26l1.32-2.85c6,2.86,10.49,8.77,14.48,14.11.66.81,1.24,1.56,1.82,2.31a265.14,265.14,0,0,1,20.52,31.1c11.65,20.28,26.09,43,49.57,56,14.85,8.21,42.58,23.42,64.91,18.58l.68,3.11c-23.44,5.06-51.9-10.52-67.08-18.95-24.28-13.36-38.93-36.51-50.8-57.19a265.15,265.15,0,0,0-20.31-30.7c-.57-.75-1.24-1.56-1.81-2.31-3.72-5-8-10.61-13.3-13.19" transform="translate(-426.47 -884.84)"/><path id="Trazado_1537" data-name="Trazado 1537" class="cls-4" d="M2358.89,2149.8a8.63,8.63,0,1,1,6.82-10.12,8.56,8.56,0,0,1-6.82,10.12h0" transform="translate(-426.47 -884.84)"/><path id="Trazado_1538" data-name="Trazado 1538" class="cls-4" d="M1367.44,1779.71A5.73,5.73,0,1,1,1372,1773a5.61,5.61,0,0,1-4.53,6.71h0" transform="translate(-426.47 -884.84)"/><path id="Trazado_1539" data-name="Trazado 1539" class="cls-4" d="M1244.42,1745.71a7.56,7.56,0,1,1,6-8.87,7.49,7.49,0,0,1-6,8.87h0" transform="translate(-426.47 -884.84)"/><path id="Trazado_1540" data-name="Trazado 1540" class="cls-4" d="M1328.66,2155.71a9.19,9.19,0,1,1,10.77,7.27,9.17,9.17,0,0,1-10.77-7.27m14.85-2.89a6,6,0,1,0-4.75,7,5.92,5.92,0,0,0,4.75-7" transform="translate(-426.47 -884.84)"/><path id="Trazado_1541" data-name="Trazado 1541" class="cls-4" d="M2331.71,1083.14a63.45,63.45,0,0,1-.34-24.71c2.86-14.24,11.63-25.82,26.15-34.48,37.23-22.29,72-2.1,95,15,24.09,17.94,50.86,36.36,83.52,49.46,15.22,6,31.11,11.46,46.4,16.7,20,6.76,40.72,13.84,60.42,22.54,59.21,26.31,112.47,71.64,147.27,103.56,20.84,19,41.22,39,61.06,58.43,23,22.48,46.68,45.6,71,67.31,4.69,4.13,9.64,8.07,14.5,11.95s10,7.85,14.74,12.12c15.18,13.62,21.89,30.68,29,48.75l.85,2.14c18.68,47.58,29.42,103.19,31.25,160.75.8,26-2.72,51.61-6.13,76.33-1.21,9-2.46,18.12-3.56,27.27-3.9,33.32-4.91,67.37-5.95,100.2-.34,10.87-.73,21.83-1.12,32.78l-.26,6.46c-1,26.71-2.11,57-15.36,81.43-12,22.21-29.92,44.36-56.4,69.67-35,33.54-89.4,52.61-135,47.42a201.16,201.16,0,0,1-40.16-10.2c-4.15-1.35-8.17-2.73-12.29-4a77.36,77.36,0,0,1-45.53-37.83,71.66,71.66,0,0,1-4.69-56c.34-1.22.82-2.47,1.29-3.71,22.41-61.12.17-113.63-23.29-169.15-6.69-15.84-13.67-32.13-19.6-48.92-28-78.83-48.91-126-73.21-180.62-16.72-37.45-33.9-76.18-55.38-129.63-25.13-62.54-62.09-115.57-101.17-171.73l-18.91-27.23c-3.3-4.76-7.43-10.44-11.83-16.42-19.08-26.26-45.84-62.77-52.24-95.67M2999,1509.24a440.6,440.6,0,0,0-21.77-76.08l-.85-2.14c-7.17-18.34-13.35-34.22-27.81-47.11-4.7-4.13-9.72-8.12-14.5-12s-9.94-7.79-14.66-12.06c-24.4-21.76-48.16-45-71.11-67.5-19.76-19.36-40.28-39.35-61-58.24-34.6-31.67-87.45-76.72-146.1-102.78-19.57-8.73-40.22-15.66-60.12-22.45-15.34-5.16-31.23-10.57-46.62-16.73-33.13-13.3-60.21-31.81-84.49-50-35.38-26.41-63.29-31-90.31-14.72-13.41,8.08-21.57,18.74-24.16,31.71-7.3,36.21,28.27,84.69,51.79,116.71,4.4,6,8.53,11.67,11.94,16.62q9.47,13.62,18.83,27.18c37.48,53.87,76.32,109.49,101.69,172.56,21.4,53.4,38.63,92,55.27,129.44,23.37,52.43,45.32,102,73.35,181,5.9,16.65,12.8,32.88,19.48,48.73,23.85,56.37,46.37,109.55,23.39,172.22h0c-.42,1.16-.9,2.41-1.24,3.63a67.86,67.86,0,0,0,4.43,52.8,72.85,72.85,0,0,0,43.13,35.85c4.21,1.27,8.23,2.65,12.38,4a197,197,0,0,0,39.27,10.09c44.49,5,97.37-13.45,131.69-46.27,26.18-25,43.91-46.86,55.59-68.65,12.78-23.59,13.83-53.4,14.86-79.6l.25-6.47c.48-10.89.87-21.85,1.12-32.77,1.1-32.92,2.17-67.06,6-100.51,1-9.2,2.32-18.46,3.61-27.36,3.58-25.69,6.93-50,6-75.65a534.65,534.65,0,0,0-9.45-83.46" transform="translate(-426.47 -884.84)"/><path id="Trazado_1542" data-name="Trazado 1542" class="cls-4" d="M2538.75,1279.6c-3.51-18-2.85-36.54,7.06-49.63,17.1-22.49,56.46-23.44,78.92-16.86,24.37,7.15,43.3,24.15,61.6,40.47,3.67,3.32,7.34,6.64,11.13,9.8a627.11,627.11,0,0,0,52.76,39.44,563.84,563.84,0,0,1,59.36,45.23c44.4,40.57,80.46,100.84,91.74,153.68a514.26,514.26,0,0,1,7.51,53.79c1.29,12.93,2.66,26.28,4.75,39.27a1122,1122,0,0,0,25.82,117.65c13.85,50.11,39.53,143.31-37.22,168.74-30.86,10.18-43.93,11.13-79.56,9.42l.13-4.14c34.91,1.72,47.17,1.06,78.1-9.2,73.1-24.15,48-115,34.58-163.76a1094.57,1094.57,0,0,1-25.85-118.15c-2.12-13.13-3.49-26.48-4.8-39.55a471,471,0,0,0-7.43-53.37c-11.2-52.07-46.74-111.5-90.59-151.46a572.42,572.42,0,0,0-58.86-44.89,634.38,634.38,0,0,1-53.1-39.67c-3.72-3.24-7.39-6.56-11.2-9.85-18-16.1-36.55-32.73-60-39.63-35.06-10.25-65.17,3.09-74.44,15.41-17.94,23.73-2.42,71.71,13.67,96.68,12.38,19.2,26.76,37.59,40.64,55.27a699.64,699.64,0,0,1,44.16,60.79c30.16,48.45,41.89,105.45,53.19,160.6,1.78,8.44,3.48,16.82,5.27,25.26,3.16,14.8,6.1,30.3,9.07,45.21,11.2,58,22.77,117.88,49.51,168.73l-3.67,1.86c-27-51.29-38.61-111.56-49.86-169.81-2.83-14.94-5.91-30.4-9-45.15-1.84-8.36-3.55-16.74-5.28-25.27-11.29-54.78-22.88-111.45-52.69-159.18a695.75,695.75,0,0,0-44-60.53c-13.91-17.83-28.29-36.21-40.83-55.53a156.11,156.11,0,0,1-20.63-51.67" transform="translate(-426.47 -884.84)"/><path id="Trazado_1544" data-name="Trazado 1544" class="cls-4" d="M1257.42,1963c-.41-2.08-.75-4.24-1.1-6.41-4.29-28.34-3.07-58.76-1.8-88.18,1.82-43.65,3.7-88.82-12.73-127.76l2.92-1.29c16.7,39.61,14.82,85.14,12.92,129.09-1.3,29.29-2.54,59.57,1.77,87.69,5.27,34.91,22.33,65.24,38.9,94.51,16.7,29.6,34,60.17,39.17,95.53l-3.14.54c-5.19-34.86-22.25-65.19-38.81-94.45-15.55-27.74-31.65-56.45-38.1-89.27" transform="translate(-426.47 -884.84)"/><path id="Trazado_1545" data-name="Trazado 1545" class="cls-4" d="M1489.5,2564.79c31.7-87.42,45.39-167.45,61.23-260.13l2.49-14.61c11.94-69.38,2.21-142.05-7.17-212.18-10.08-75.19-20.44-153-3.2-224.35l4,1c-17.16,70.69-7.19,144.61,3.26,222.82,9.44,70.42,19.22,143.36,7.19,213.41l-2.49,14.6c-15.18,89-29.58,173.16-61.37,260.88Z" transform="translate(-426.47 -884.84)"/><path id="Trazado_1546" data-name="Trazado 1546" class="cls-4" d="M1612.92,2355.53c-3.83-35.28,1.71-70.14,7-103.81,5.51-34.64,11.22-70.47,6.9-107.16-.95-8.24-3-18.93-5.22-30.17-6.93-35.68-14.87-76.13,1.22-87.11,8.27-5.65,21.24-2.69,39.78,9,50.26,31.72,83,87.67,114.64,141.73,28.15,48.05,57.28,97.86,98.67,130.73l-2.54,3.23c-42-33.4-71.41-83.51-99.69-131.9-31.38-53.61-63.86-109.18-113.2-140.28-16.75-10.58-28.58-13.61-35.26-9.07-13.86,9.47-5.93,50.28.49,83,2.27,11.3,4.29,22.07,5.36,30.51,4.43,37.24-1.37,73.38-7,108.32-5.31,33.45-10.91,68-7,102.73Z" transform="translate(-426.47 -884.84)"/><path id="Trazado_1547" data-name="Trazado 1547" class="cls-4" d="M1875.7,2315.9a5.73,5.73,0,1,1,4.53-6.72,5.62,5.62,0,0,1-4.53,6.72h0" transform="translate(-426.47 -884.84)"/><path id="Trazado_1548" data-name="Trazado 1548" class="cls-4" d="M1606.89,2362.32a9.19,9.19,0,1,1,10.78,7.27,9.38,9.38,0,0,1-10.78-7.27m15-2.92a6,6,0,1,0-4.75,7,6.09,6.09,0,0,0,4.75-7" transform="translate(-426.47 -884.84)"/><path id="Trazado_1549" data-name="Trazado 1549" class="cls-4" d="M2805.41,1891.78a10.46,10.46,0,0,1,20.09-5.63,10.42,10.42,0,0,1-19.43,7.52c0-.14-.11-.2-.14-.34a6.73,6.73,0,0,1-.52-1.55m8.12-7.92a7.62,7.62,0,1,0,.27,0c-.13,0-.22,0-.27,0" transform="translate(-426.47 -884.84)"/><path id="Trazado_1550" data-name="Trazado 1550" class="cls-4" d="M2756.47,1854.54a12.39,12.39,0,1,0,7.35-15.91,12.44,12.44,0,0,0-7.35,15.91h0" transform="translate(-426.47 -884.84)"/></g></g></g></g></g></svg>