<svg xmlns="http://www.w3.org/2000/svg" xmlns:xlink="http://www.w3.org/1999/xlink" viewBox="0 0 2606.12 1956.38"><defs><style>.cls-1{fill:none;}.cls-2{opacity:0.1;}.cls-3{clip-path:url(#clip-path);}.cls-4{fill:#5000ff;}</style><clipPath id="clip-path" transform="translate(-301.23 -670.93)"><rect class="cls-1" x="485.37" y="416.74" width="2442.62" height="2676.62" transform="translate(-624.21 1006.79) rotate(-28)"/></clipPath></defs><g id="Layer_2" data-name="Layer 2"><g id="Capa_1" data-name="Capa 1"><g id="Grupo_1408" data-name="Grupo 1408" class="cls-2"><g class="cls-3"><g id="Grupo_1407" data-name="Grupo 1407"><path id="Trazado_1478" data-name="Trazado 1478" class="cls-4" d="M1548.35,1781.29a43.88,43.88,0,0,0,.69-27.94,57.85,57.85,0,0,0-15.49-23.54c-14.89-14.43-34.61-24-54.19-30a329.92,329.92,0,0,0-32.55-7.77,169.65,169.65,0,0,0-37.84-4.19,63.2,63.2,0,0,0-33.92,9.26,50.64,50.64,0,0,0-20.41,31.25,47.84,47.84,0,0,0,4.82,32.76,135.91,135.91,0,0,0,21.54,28.22,199.18,199.18,0,0,1,22.77,27.34,243.24,243.24,0,0,1,12.13,24.08c8.55,17,18.16,34.83,32.11,48.11a45.81,45.81,0,0,0,21.5,12.57,32.09,32.09,0,0,0,24.06-4.91,79.55,79.55,0,0,0,23.51-25.54,140,140,0,0,0,15.82-36.81c3.42-11.71,13.51-47.53,15.45-52.89m-25.3,70.07a96.42,96.42,0,0,1-19,31c-6.19,7-14,13.63-23.4,15.46-16.57,3.11-30.35-10.66-39.52-22.58a259.27,259.27,0,0,1-27.25-47.64,118.84,118.84,0,0,0-6.08-11.82,127.14,127.14,0,0,0-10.11-13.66c-7.56-9-15.85-17.11-23.36-26.17a71.67,71.67,0,0,1-15.91-28.46,46.37,46.37,0,0,1,6.38-34.31,43.8,43.8,0,0,1,26.8-19.37,97,97,0,0,1,35.84-1.21,342.84,342.84,0,0,1,35.5,6.75,195.42,195.42,0,0,1,28,8.4c18,7.18,36.48,17.72,48,33.73a42.84,42.84,0,0,1,8.54,24c-.09,9.86-7.35,38-24.42,85.89" transform="translate(-301.23 -670.93)"/><path id="Trazado_1479" data-name="Trazado 1479" class="cls-4" d="M1578.54,1689.88a106.24,106.24,0,0,0-23.9-27.78,173,173,0,0,0-32.51-21c-10.39-5.42-21.15-10-31.61-15.14s-20.64-10.31-31.45-14.46a81.52,81.52,0,0,0-30.88-6.66c-20.39.35-38.34,10.8-57.7,15.84-6.55,1.78-13.22,2.79-20,4.11s-13.75,2.7-20.68,4.13a369.23,369.23,0,0,0-45.92,12.55,141.45,141.45,0,0,0-40.19,20.88,56.56,56.56,0,0,0-21.6,32.64c-3.51,17.49,3.37,34.57,11,50.1a289.47,289.47,0,0,0,42,61.39c8,9.23,16.5,18,25.31,26.41a324.73,324.73,0,0,1,27.44,29.67,574.42,574.42,0,0,1,45.44,66.5c6.56,10.82,12.73,22.11,19.75,32.75a108.52,108.52,0,0,0,17.72,20.8,85.32,85.32,0,0,0,42.21,20.81,95.92,95.92,0,0,0,45.83-3.85,136.4,136.4,0,0,0,43.68-24.15,164.46,164.46,0,0,0,35.85-40.64,195.91,195.91,0,0,0,23.39-56.41,265.94,265.94,0,0,0,7.62-63,313.87,313.87,0,0,0-5.94-63.3,286.73,286.73,0,0,0-17.27-57.28c-1-2.23-4.3-.6-3.4,1.58,3.6,8.57,6.78,17.25,9.51,26.12a311.85,311.85,0,0,1,11.79,59.59,298.44,298.44,0,0,1-.26,63,226.29,226.29,0,0,1-14.48,59.43,170.25,170.25,0,0,1-29.53,48.75,150.73,150.73,0,0,1-39.1,32.27,113.56,113.56,0,0,1-44.29,14.69,80.87,80.87,0,0,1-43.7-7.47,93.72,93.72,0,0,1-37.05-34c-6.86-10.53-12.95-21.55-19.34-32.27-6.81-11.21-13.74-22.37-21.06-33.3a377.57,377.57,0,0,0-50-61.21,386.09,386.09,0,0,1-47.66-54.07,268,268,0,0,1-19.36-31.46,129.64,129.64,0,0,1-11.71-28.86,48.17,48.17,0,0,1,6.21-38.49c7.66-11.39,19.5-19.44,31.59-25.59a223.94,223.94,0,0,1,43.49-15.87c14.06-3.8,28.28-6.69,42.62-9.39,6.33-1.21,12.69-2.29,19-3.78a269.66,269.66,0,0,0,27.91-9.36,101.25,101.25,0,0,1,28.39-6.86,75,75,0,0,1,30.59,5.78c10.55,4,20.75,9,30.9,14,10.32,5.15,20.86,9.74,31.18,14.89,22.36,11.33,43.94,26.28,56.86,48.28,1.2,2.46,4.59.89,3.41-1.22" transform="translate(-301.23 -670.93)"/><path id="Trazado_1480" data-name="Trazado 1480" class="cls-4" d="M1298.44,1509.1c-33.85-4.24-67.86-.06-101.58,3.83s-69.23,4.94-97.6,25.93a178.34,178.34,0,0,0-27.33,26.28,234.27,234.27,0,0,0-26.11,35.87,90.14,90.14,0,0,0-12.57,32.58,93.64,93.64,0,0,0,4.22,40.34c8.75,27.19,26.3,50.8,43.24,73.46,8.33,11.19,16.85,22.26,24.52,33.75,4.25,6.52,8.12,13.28,12.51,19.77a289.52,289.52,0,0,0,17.46,23.55c23.55,29,51.43,54,76.82,81.28a404.66,404.66,0,0,1,36.58,44.73,395.78,395.78,0,0,1,29.55,53.34c15.71,32.3,30.61,65.17,50.29,95.31a252.19,252.19,0,0,0,72.88,74.24,181.18,181.18,0,0,0,47.08,23.39,140.27,140.27,0,0,0,44,5.43,149.62,149.62,0,0,0,83.56-28.78c27.31-20.22,47-50.36,61.17-80.84a373.77,373.77,0,0,0,29.94-104.39c2.55-17.25,3.71-34.52,4.56-51.86.94-19,2-38.1,2.64-57.21,1-37.64,0-76.3-11.14-112.51-11-35.66-29.75-68.15-43.34-102.8-.86-2.27-4.31-.61-3.4,1.57,6.53,16.52,14.08,32.49,21.53,48.63a433.66,433.66,0,0,1,20.87,51.28,257.66,257.66,0,0,1,10.43,55.26c3.22,36.58.77,73.27-1.08,110-1.81,35.43-5.31,70.19-14.44,104.6s-22.85,67.94-43.59,97c-18.62,26.14-42.53,46.9-72.89,57.82a142.68,142.68,0,0,1-89.75,2.77,181.91,181.91,0,0,1-46.46-23.83,241,241,0,0,1-40.65-34.46c-23.45-25.06-40.7-54.79-56.1-85.27-16.68-33-30.48-67.9-51.25-98.58-21-30.92-47.69-57.12-73.81-83.55-12.65-12.73-25.23-25.78-36.86-39.42a383,383,0,0,1-31.24-43.73c-14.7-23.3-32.87-44.13-48.08-67.16-15.1-22.83-28.61-49.27-26.77-77.56a80.5,80.5,0,0,1,11.39-34.11,218.37,218.37,0,0,1,24.29-34.4,184.73,184.73,0,0,1,28-27.61,108.93,108.93,0,0,1,46.08-19.8c16.45-3.3,33.44-4.4,50.1-6.3s33.27-3.92,50-5a281.25,281.25,0,0,1,50.66.93,325.06,325.06,0,0,1,47.52,10.82c31,8.45,62.22,16,92.9,25.37,61,18.59,127.94,44.91,164.2,100.87,1.37,2,4.68.37,3.39-1.57a167.88,167.88,0,0,0-29.58-34.46c-24.44-22-53.91-37.64-84.22-49.91a822.46,822.46,0,0,0-98.23-31.25c-15.78-4.23-31.57-8.24-47.3-12.55a302.55,302.55,0,0,0-47-11.09" transform="translate(-301.23 -670.93)"/><path id="Trazado_1481" data-name="Trazado 1481" class="cls-4" d="M1293,1426c-81.85,9-170.3,20.53-236.91,73.72a235.24,235.24,0,0,0-43,45.11c-12,16.47-22.18,34.39-33.32,51.37a221.22,221.22,0,0,0-23.92,44.08,101.27,101.27,0,0,0-5.33,49.06,358.3,358.3,0,0,0,16.65,64.14,460.31,460.31,0,0,0,25.48,60.69c20.81,41.09,47.13,81.17,81.65,112.06,36,32.26,78.18,57.24,111.17,92.81,32.41,35,57.87,75.72,82.06,116.62,11.34,19.18,22.07,38.81,33,58.23a310.75,310.75,0,0,0,36.34,53.69,146.69,146.69,0,0,0,50.64,37.65,141.27,141.27,0,0,0,60.48,11.38c9.43-.17,18.81-.83,28.17-1.27,10.14-.56,21-1.51,30.89.83,19,4.38,30.21,20.6,42.48,34.15,8.09,9.06,17.12,17.52,29.16,20.79a48.54,48.54,0,0,0,27.51-1.32c22.45-7.28,41-25.08,56.29-42.24a414.68,414.68,0,0,0,45.69-63.43,335.86,335.86,0,0,0,30.74-67.27,294.47,294.47,0,0,0,13.52-60.94,171.66,171.66,0,0,0,1.14-31.41,237.58,237.58,0,0,0-4.94-30.61c-4.51-21-8.33-41.29-5.4-62.86,2.71-19.84,8.77-39.06,12.37-58.83,3.94-21.32,2.7-42.36.78-63.82a393.18,393.18,0,0,0-11.23-68.11c-23.35-85.78-90.13-150.17-126.79-229.71-1-2.23-4.44-.57-3.4,1.57a485.14,485.14,0,0,0,29.93,54.27c23,36.82,48.93,71.75,69.69,110a308.35,308.35,0,0,1,25.07,58.46,355.63,355.63,0,0,1,12.33,67.25c2.14,21.47,4.14,43.2.67,64.69-3.13,19.58-9,38.55-12.4,58.11a158.49,158.49,0,0,0,2.28,59.12c4.33,20.57,8.5,40.22,7,61.28-4.29,59.95-28.45,115.32-62.16,164.24-14.61,21.21-31.06,41.78-50.91,58.31-15.29,12.63-36,25.38-56.71,19.83-12.87-3.43-21.86-13.14-30.39-22.82-11.12-12.74-22.19-26.75-39.22-31.61a88.56,88.56,0,0,0-27-1.87c-9.31.35-18.7,1-28,1.37-20.92.85-41.33-.92-61-8.63-42.71-16.68-68.67-53.28-90.49-91.7-21.9-38.71-43.33-77.6-68.14-114.56a519.72,519.72,0,0,0-42.34-55.54,376.65,376.65,0,0,0-48.59-44.94c-19.2-15-39.08-29.32-57.78-45a294.08,294.08,0,0,1-49.53-52.51,477.4,477.4,0,0,1-63.09-117.12,467.28,467.28,0,0,1-18.17-63.54,101.29,101.29,0,0,1,1.86-53.59,195,195,0,0,1,23.1-44.45c10.54-16.19,20.39-32.78,31.28-48.76a237.37,237.37,0,0,1,94.7-79.94c37.58-17.9,78.56-27.46,119.48-34,21-3.4,42-5.89,63.09-8.3,22.62-2.5,45-5.25,67.86-4a1.82,1.82,0,0,0,1.86-1.92,2,2,0,0,0-1.56-1.87c-21.71-1.14-43.12,1.28-64.83,3.63" transform="translate(-301.23 -670.93)"/><path id="Trazado_1482" data-name="Trazado 1482" class="cls-4" d="M1266.71,1201.17c-3.07-.91-6.19-1.74-9.28-2.43a141.23,141.23,0,0,0-73.9,1.45c-58.68,16.31-110.55,50.59-164.67,77.57-29.11,14.47-59.39,26-86,45.13-26.08,18.75-46,43.76-66.43,68.23-23.75,28.66-48,59-66.92,92-15.61,6.37-31.09,13.87-47.38,18.08a119.13,119.13,0,0,1-62.41-2.15,65.55,65.55,0,0,1-24-12.09,144.17,144.17,0,0,1-17.81-19.1c-18.27-21.82-57.93-59.3-70.47-71a8.11,8.11,0,0,0-8.77-1.53,253.76,253.76,0,0,0-27.37,13.53,375.59,375.59,0,0,0-88.68,76.91c-46.09,53.39-77.7,116.3-108.33,179.32-13.83,28.44-27,57.61-35.54,88.08a192.56,192.56,0,0,0-7.44,40.91,153.51,153.51,0,0,0,5.33,43.56c9,38.43,22.71,75.6,35.43,112.87a971.28,971.28,0,0,1,32,120.06c8.48,41.61,15.73,83.52,25.44,124.83,4.62,19.69,9.92,39.21,16.1,58.44a124.84,124.84,0,0,0,29.85,50.13c29.71,30.34,70.26,49.45,106.13,71.12,30.29,18.32,61,36.17,92.19,52.95,73.72,39.62,152.83,79.22,236.77,92.33a260.94,260.94,0,0,0,54.69,3.34c7.7-.39,15.31-1.41,22.91-2.21a24.42,24.42,0,0,1,9.45-.39,32.73,32.73,0,0,1,5.79,3.95,110.66,110.66,0,0,0,15.26,8,208,208,0,0,0,43.54,14.72,126.57,126.57,0,0,0,79.83-8.61c25.09-11.64,45.56-30.38,63-51.49,6-7.34,11.79-15,17.06-22.77a308.38,308.38,0,0,0,32.54,18.27c6,2.88,12.07,5.74,18.09,8.53-3.47,4.22-6.8,8.4-10.18,12.67-26.73,33.41-53.55,67.57-90.27,90.43a231.65,231.65,0,0,1-30.11,15.74,170.5,170.5,0,0,1-30.08,10.27,110.1,110.1,0,0,1-47.39.81A205.55,205.55,0,0,1,991.33,2606c-16.06-7.43-32-15.35-48.35-22-41.47-17-85-25.74-128.29-32.87-43.49-7.23-87.29-13.36-130.07-26.23a9.51,9.51,0,0,0-19,.94,10.71,10.71,0,0,0,.89,3.57,8.84,8.84,0,0,0,1.44,2.27,9.54,9.54,0,0,0,13.43,1,9.39,9.39,0,0,0,2.68-3.88c.05-.08,0-.22.06-.3,5,1.46,10,3,15,4.21,43.47,11.53,87.63,17.07,131.53,24.78,22.17,3.87,44.29,8.41,66.07,14.5a448.21,448.21,0,0,1,60.25,21.85c29.21,13.12,58.37,30.41,90.27,33.24a122.68,122.68,0,0,0,50.46-6.9,229.55,229.55,0,0,0,60.35-31.51c35.11-25.81,60.89-61.53,88.08-95.13a645.28,645.28,0,0,0,74.27,27.83c31.38,9.52,65.16,18.73,98.05,19.72,28.28.89,56-5.8,82.73-14.58,26.41-8.63,52.26-19.23,79.38-25.33,14.15-3.17,28.44-4,42.76-5.93a314.45,314.45,0,0,0,44.61-9,455.61,455.61,0,0,0,83.82-34.45c30.55-15.71,62.36-29.61,91.45-47.94,26.46-16.66,50.4-37.86,63.54-66.71,13.15-29.08,21.54-61.49,28.21-92.59a728.67,728.67,0,0,0,14.65-169.81c8.44-3.56,16.85-7.26,25.14-11.15,9-4.14,18.27-8.27,28.54-7.7,13.25.85,26.21,9,37.94,16.85,13.13,8.82,25.63,18.9,38.78,27.5,14.12,9.3,29.19,16.26,43.87,24.26a320.62,320.62,0,0,1,38.36,23.52c10.1,7.46,19.82,15.75,29.8,23.62a294.33,294.33,0,0,0,31.52,22.67,76.07,76.07,0,0,0,20.13,8.83,7.67,7.67,0,0,0,8.29,7,6.6,6.6,0,0,0,1.6-.33,7.54,7.54,0,0,0,5.13-5.43,7.72,7.72,0,0,0-14.71-4.64,47,47,0,0,1-6.26-2,138.91,138.91,0,0,1-31.2-18.75c-10.47-7.81-20.59-16.22-30.8-24.46a288.84,288.84,0,0,0-31.3-22.07c-14.49-8.71-29.29-16.31-44-24.09a340,340,0,0,1-40.66-26.3,232.6,232.6,0,0,0-38.5-24.65,46,46,0,0,0-30-4.12c-10.6,2.5-20.36,8.06-30.26,12.5-3.86,1.76-7.76,3.39-11.65,5-.07-4.36-.27-8.68-.42-13.09-1.27-32.26-3.94-64.31-12-95.67-1.11-4.17-2.27-8.25-3.44-12.33,2.8,2.73,5.56,5.32,8.35,8.05,29.87,28.33,61.38,55.31,96.18,77.39a361.78,361.78,0,0,0,54.52,28.67c9.68,4.07,19.49,7.75,29.52,10.86a182.24,182.24,0,0,0,31.3,6.55c20.64,2.73,41.5,3.36,61.88,7.67a165,165,0,0,1,30.92,10.3c9.33,4.08,18.55,8.34,27.5,13.25a146.27,146.27,0,0,1,44.62,35.45c11.74,14.63,18.35,32.37,25,49.8a548.43,548.43,0,0,0,22.55,53.91c8.3,16.3,18.83,32,33.57,43.16a9.86,9.86,0,1,0,2.24-3.33,84.43,84.43,0,0,1-9.28-8.25c-13.3-13.59-22.27-30.89-29.86-48.16-7.77-17.74-14-35.94-21.3-53.87a164.58,164.58,0,0,0-11.78-24.46A115.5,115.5,0,0,0,2312,2135a183.1,183.1,0,0,0-48-32.12c-9.42-4.72-19.05-8.88-28.81-12.64a162.78,162.78,0,0,0-30.28-7.46c-20.7-3.22-41.79-3.65-62.49-7.45a254.34,254.34,0,0,1-60.16-20.64,385.12,385.12,0,0,1-53.65-30.71c-34.3-23.3-65.24-51.22-95.08-80a1.56,1.56,0,0,0-1.85-.41c-7.77-23.57-18.15-45.9-28-68.87-27.09-63.06-27-134.43-56.47-196.68-58.2-122.93-194.52-179.53-274.39-285-1.51-2-4.3.56-2.88,2.46a492.76,492.76,0,0,0,64.61,68.58c48.68,43.83,102.64,82,147.94,129.49a341.4,341.4,0,0,1,57.09,77.58c15.52,30.09,23.58,62.7,30.68,95.55,6.84,31.52,13,63.44,23.84,93.89,5.65,15.64,13.26,30.36,19.75,45.58a365.62,365.62,0,0,1,31.07,139.53,922.15,922.15,0,0,1,.16,93.32,627.39,627.39,0,0,1-36.49,183,136,136,0,0,1-25.44,44.09,186.74,186.74,0,0,1-39.31,32.61c-28.28,18.13-59.38,31.64-89.14,47-27.43,14.2-55.5,27.31-85.22,35.82a315.65,315.65,0,0,1-42.28,9c-14.51,2-29.14,2.67-43.47,5.74-53.89,11.25-103.54,40.68-159.79,40.71-33.24,0-67.12-9.06-98.77-18.51a636.37,636.37,0,0,1-94.32-36.61,324.68,324.68,0,0,1-36.6-20.24,297.45,297.45,0,0,0,27.35-51.35c8.55-21.23,15.05-44.85,12.94-67.94,12.19,5.92,26.39,8.51,39.25,12.15,24.45,6.88,48.64,15.35,72.41,24.14,69.4,25.84,137.66,73.39,215.27,61.11a175.07,175.07,0,0,0,95.17-50c6.38-6.55,12.39-12.85,21.6-14.79,10.67-2.22,19,2.47,29.13,4.33,15,2.68,30.88-6,42.92-13.76,30.37-19.67,54.77-48.64,76-77.54,7.52-10.18,14.8-20.74,21.42-31.58a213.17,213.17,0,0,0,23.31-57c8.69-41.45,6.66-84.67,2.38-126.67-4.52-44.71-4.52-92.66-22.12-134.62-4.2-10.11-10.71-18.68-16.4-28a137.77,137.77,0,0,1-13.78-35.7,648,648,0,0,0-25-72.77c-20.27-48.58-45.67-94.64-71.51-140.38-13.09-23.26-26.74-46.17-41.47-68.44-14.58-21.94-33.32-39.5-53.39-57.16-8.78-7.72-17.36-15.56-25.69-23.83-14.67-14.42-29.48-30.55-38.18-49.66-3.46-10.36-3.75-6-12-12.32a175.84,175.84,0,0,1-35.63-39.14c-5.62-7.93-11-16.06-17-23.66a176.39,176.39,0,0,0-15.63-17.09,290.33,290.33,0,0,0-41.45-33,350.51,350.51,0,0,0-50.56-28.27,219.28,219.28,0,0,0-44.83-14.7,277.52,277.52,0,0,0-150.19,8.81,516.78,516.78,0,0,0-94.2,44c-4.41,2.49-8.73,5-13.11,7.64a17.37,17.37,0,0,0-25.84,23.21,17.54,17.54,0,0,0,19,4.74,10.41,10.41,0,0,0,4.68-3.71c8.12-11,7-16.55,4.42-21.15,4.19-2.5,8.32-4.91,12.46-7.33l11.68-6.63a460.57,460.57,0,0,1,92.86-40.57,277.18,277.18,0,0,1,99.44-11,270.81,270.81,0,0,1,52.85,9.13,240.83,240.83,0,0,1,45.25,18.67,363.76,363.76,0,0,1,46,28.6,247.78,247.78,0,0,1,38,33.53c12,13.27,21.06,28.64,31.8,42.8a133.39,133.39,0,0,0,36.61,34,133.72,133.72,0,0,0,24.93,38.89c27.05,30.72,62.5,53.65,87.22,86.48,15.37,20.43,28.19,43.18,40.92,65.3,13.24,23,25.88,46.23,38.47,69.55,24.26,44.67,47,91.69,61,140.73,3.31,11.78,6.33,23.64,10.46,35.22a142.1,142.1,0,0,0,15.88,28.9c13.84,21.62,18.82,47.71,22.54,72.58,2.15,14.48,3.57,29.21,4.64,43.73,2,26.26,5.37,52.23,6.24,78.54,1.4,41-.55,86.35-20.93,123a436.69,436.69,0,0,1-58.26,80.26,259.61,259.61,0,0,1-39.93,36.56c-12.82,9.1-30.86,20.3-47.22,16.65-8.42-1.9-15.9-5.58-24.76-4.61a35.35,35.35,0,0,0-20.35,9c-7.09,6.36-13.33,13.45-20.8,19.47a203,203,0,0,1-25.12,17.34,161.27,161.27,0,0,1-97.59,20.69c-34.09-3.45-66.72-15.94-97.55-30.26-21.43-10-42.59-20-64.67-28.48-23.87-9.21-48.09-17.23-72.49-24.77-15.64-4.85-34.33-7.33-49.27-15.49a42.75,42.75,0,0,1-12.46-9.35c-8.26-8.58-13.36-19.7-19.44-29.77-6.45-10.64-13.21-21.12-19.65-31.76-26.88-44.38-53.22-88.9-83.63-131.09a384.88,384.88,0,0,0-50-58.65,175,175,0,0,0-27.2-20.55c-9.72-6-19.43-11.55-27.16-20.05-15-16.5-24.74-37.26-33.57-57.5S943.87,1938.63,934,1919c-21.78-43-41.91-87.71-50.23-135.41-7.72-44.43-8-93.84,7.6-136.72,8-21.89,19.37-42.14,24.51-65.07,5.23-23.45,8.44-46.84,17.4-69.34,17.51-44.08,49.68-79,86.88-107.51,2-1.51-.56-4.3-2.46-2.88a321.48,321.48,0,0,0-48.76,45,224,224,0,0,0-36.42,57.33c-9.93,22.73-14.32,46.35-19.07,70.56a176.34,176.34,0,0,1-11.13,36c-4.59,10.54-9.43,20.93-13.45,31.7a222.22,222.22,0,0,0-13,62.91,317.46,317.46,0,0,0,15.94,125.89,672.45,672.45,0,0,0,33.55,78.72c10.23,20.85,19.59,41.76,28.65,63.18,8.56,20.32,17.78,40.9,31.26,58.45a92.31,92.31,0,0,0,23.45,21.56,283.43,283.43,0,0,1,26.81,17.51c21.36,17.27,39.15,38.92,55.43,61q24.22,32.76,45.9,67.48c14.08,22.58,27.46,45.55,41.3,68.33,6.8,11.21,14.07,22.22,20.68,33.54,5.67,9.6,10.71,19.85,18.13,28.28a49.42,49.42,0,0,0,13.13,10.57,108.32,108.32,0,0,1-1.08,30.15c-4.86,29.05-18,56.74-33.46,81.51-1.55,2.57-3.18,5.09-5,7.65a172.84,172.84,0,0,1-43.89-41.31,564.46,564.46,0,0,1-49.41-85.92c-28.55-59.27-51.85-121.45-87.83-176.9a370.55,370.55,0,0,0-27.76-37.68c-10.68-12.72-22.72-23.92-34.57-35.47a276.51,276.51,0,0,1-54.54-77.57c-14.44-29.56-27.3-59.8-41.92-89.24-14.75-29.63-29.77-59.19-43.08-89.47a495.34,495.34,0,0,1-42-182.58c-1-29.91.29-60.49,7.58-89.71,5.94-23.85,29.25-70,36.52-81a895.62,895.62,0,0,1,53.45-72.64c20.11-24.55,40-50.28,65.38-69.8,26.67-20.49,57.47-32.55,87.36-47.14,27-13.2,53-28.09,79.63-41.86,27-14,54.61-27.39,83.86-36.07a148.47,148.47,0,0,1,39.72-7.28,151.65,151.65,0,0,1,38.14,5.07c3,.72,4.23,1.49,12.6,3.49,21.35,6.41,42,15.1,62.74,23.34-.19.12,0,0,4,1.57,10.44,4.17,20.9,8.12,31.58,11.51,13.44,4.22,27.21,6.55,40.85,9.49,14.38,3,29.15,7,41.06,15.92,14.42,10.77,26,25.44,36.85,39.64,20.8,27.32,40.69,55.37,72.22,71,2.16,1.06,4.29-2.09,2.13-3.15-32.92-16.28-52.67-46.12-74.49-74.28-10.11-13.07-21.09-26.44-34.5-36.36-11.62-8.62-25.83-12.72-39.81-15.87-13.8-3-27.76-5.25-41.34-9.44-10.6-3.34-21-7.24-31.24-11.31M677.71,2530.13a5.75,5.75,0,1,1-4.79-10.46,5.69,5.69,0,0,1,6.7,1.46,6.1,6.1,0,0,1,.84,1.32,5.71,5.71,0,0,1-2.75,7.68h0M2408.59,2292a5.7,5.7,0,0,1,5.69,4.12,5.83,5.83,0,0,1-3.79,7.28,11.4,11.4,0,0,1-1.6.33,6,6,0,0,1-6-5.72,5.83,5.83,0,0,1,5.71-6M1084,1378.26a13.68,13.68,0,1,1,7.18-18l.09,0a13.59,13.59,0,0,1-7,17.85c-.13,0-.18.12-.27.07M772.33,1545.53c-8.13,28.48-10.24,58.6-9.85,88.23a517.91,517.91,0,0,0,10,93.49c12.66,64,41.8,122.07,70.73,179.93,15,30.14,28.7,60.77,43.07,91.22,13.55,28.9,29.88,56.09,52,79.29,11.74,12.31,24.69,23.36,36,36.08a354.15,354.15,0,0,1,30.21,39.61,676.6,676.6,0,0,1,48.81,90.23c28,60.07,52.14,122.91,91.28,177a175.59,175.59,0,0,0,44.64,42,243.6,243.6,0,0,1-47,53.1c-22.65,18.48-50.39,30.86-79.94,31.3-28.47.4-58.78-8.95-83.44-23.06-4.25-2.44-7.91-6.63-13.06-6.8a79.62,79.62,0,0,0-12.25,1.15,247.62,247.62,0,0,1-26.48,1.94c-36.59.53-73.07-7.5-107.89-18.28-77.54-24-150.26-63.1-220.38-103.48-35.5-20.52-71.15-41-105.93-62.72a226.38,226.38,0,0,1-48.44-38.21c-14.67-16.16-22.31-34.51-28.61-55.1-23.85-78.15-32-159.92-53.44-238.6-10.2-37.4-24-73.68-36.06-110.46-6.25-18.92-11.95-38-16.41-57.34a146.43,146.43,0,0,1-4.92-43.66c1.94-27.31,11.13-53.86,21.44-79.17,9.17-22.26,19.34-44,30.28-65.34,19.69-38.21,38-76.45,62.1-111.9a467.11,467.11,0,0,1,78.58-90.21,321.58,321.58,0,0,1,48-35.07,254.51,254.51,0,0,1,23.26-11.92,6,6,0,0,1,6.55,1.13c6.65,6.21,13.3,12.43,19.87,18.59a712.11,712.11,0,0,1,54.28,57.23,95.85,95.85,0,0,0,17.77,17.21,75.48,75.48,0,0,0,25.19,10.7,121.93,121.93,0,0,0,59.68,1.44c15.28-3.88,29.79-10.56,44.3-16.66a277.37,277.37,0,0,0-23.94,57.13" transform="translate(-301.23 -670.93)"/><path id="Trazado_1485" data-name="Trazado 1485" class="cls-4" d="M1423.86,1430.46a10.22,10.22,0,0,1-7.42,12.34,10,10,0,0,1-11.74-5.89,10.2,10.2,0,1,1,18.63-8.29c0,.14.12.19.15.33a10.77,10.77,0,0,0,.38,1.51m-15.87,3.88a6.2,6.2,0,1,0,3.61-7.17,6.22,6.22,0,0,0-3.61,7.17" transform="translate(-301.23 -670.93)"/><path id="Trazado_1486" data-name="Trazado 1486" class="cls-4" d="M1619.49,1563.87a6.12,6.12,0,0,1-3.66,7.25h0a6.23,6.23,0,1,1,3.28-8.18,1.56,1.56,0,0,1,.38.93m-4.51,5a3.8,3.8,0,1,0-5-2,3.84,3.84,0,0,0,5,2" transform="translate(-301.23 -670.93)"/><path id="Trazado_1487" data-name="Trazado 1487" class="cls-4" d="M1581.56,1553.21a5.44,5.44,0,1,0-7.13-2.88h0a5.44,5.44,0,0,0,7.13,2.88" transform="translate(-301.23 -670.93)"/><path id="Trazado_1488" data-name="Trazado 1488" class="cls-4" d="M1377.42,1422.51a12,12,0,1,0-6.34,15.79,12,12,0,0,0,6.34-15.79h0" transform="translate(-301.23 -670.93)"/><path id="Trazado_1494" data-name="Trazado 1494" class="cls-4" d="M2653.27,1312.39a109.52,109.52,0,0,0-10.92-35.61,175.26,175.26,0,0,0-21.67-32.86c-7.54-9.2-15.61-17.9-23.29-27.06-7.56-9-15.07-18-23.4-26.3a82.52,82.52,0,0,0-26.12-18.85c-19.12-8-40.16-5.58-60.24-8.67-6.83-1.06-13.51-2.75-20.25-4.35-7-1.61-14-3.15-21-4.54a378.27,378.27,0,0,0-47.94-7,143.55,143.55,0,0,0-46,3.16A57.85,57.85,0,0,0,2319,1172c-10.35,14.9-10.95,33.56-10.07,51.12a294,294,0,0,0,14.16,74.3c3.75,11.82,8,23.5,12.86,34.91a331.5,331.5,0,0,1,13.54,38.82,574.9,574.9,0,0,1,15.38,80.41c1.74,12.83,2.85,25.74,5.09,38.52a110.78,110.78,0,0,0,8,26.64,86.14,86.14,0,0,0,30.9,36.53,96.43,96.43,0,0,0,44.27,15,137.54,137.54,0,0,0,50.56-4.74,164.73,164.73,0,0,0,49.94-23.3,198.29,198.29,0,0,0,44.7-43.14,278.18,278.18,0,0,0,32.71-55.6,331.85,331.85,0,0,0,20.19-61.37,297.11,297.11,0,0,0,7.24-60.39c0-2.47-3.86-2.32-3.82.15a258.81,258.81,0,0,1-1.79,28.21,317.36,317.36,0,0,1-13.21,60.43,308.5,308.5,0,0,1-25.76,58.6,235,235,0,0,1-37.62,49.61,171.34,171.34,0,0,1-47.27,33.43,152.14,152.14,0,0,1-49.59,14.18,113.77,113.77,0,0,1-47.21-4.33,82.37,82.37,0,0,1-37.73-24.77,95.69,95.69,0,0,1-20.69-46.73c-2.12-12.59-3.33-25.33-5-38-1.76-13.19-3.74-26.4-6.08-39.59a376.48,376.48,0,0,0-21.77-77.36,402.77,402.77,0,0,1-22.44-69.83,266.21,266.21,0,0,1-5.27-37.24,127,127,0,0,1,.93-31.64,49.15,49.15,0,0,1,21.34-33.38c11.75-7.52,26.09-10.22,39.88-11a217.75,217.75,0,0,1,47,2.93c14.63,2.25,29.15,5.26,43.52,8.53,6.35,1.48,12.73,3.09,19.19,4.18a290.37,290.37,0,0,0,29.81,2.62,102.44,102.44,0,0,1,29.34,5.15,76.71,76.71,0,0,1,26.16,17.82c8.26,8,15.64,16.87,23.08,25.65,7.56,9,15.46,17.57,23,26.63,16.28,19.7,30.32,42.37,33.33,68.21-.12,2.73,3.79,2.63,3.4.18" transform="translate(-301.23 -670.93)"/><path id="Trazado_1495" data-name="Trazado 1495" class="cls-4" d="M2505.27,1059.32a334.4,334.4,0,0,0-39.53-29.36c-29.84-17.7-63.3-27.65-96.2-37.73S2303,968.67,2268,976.73a180,180,0,0,0-36.24,13.33,231.08,231.08,0,0,0-39,22.91,91.55,91.55,0,0,0-25,25.24,94.59,94.59,0,0,0-12.43,39.32c-2.92,28.93,3.84,58.07,10.46,86.08,3.28,13.76,6.65,27.57,9.11,41.53,1.37,7.82,2.24,15.69,3.61,23.51,1.79,9.83,4.05,19.47,6.75,29.14,10.22,36.59,26,71.28,38.57,107.06a417.2,417.2,0,0,1,16,56.5,407.47,407.47,0,0,1,5.93,61.78c1.43,36.44,1.94,73.27,8.16,109.32a258.41,258.41,0,0,0,37.77,98.87,180.68,180.68,0,0,0,34.38,40.84,139.21,139.21,0,0,0,38.86,22.89,153.18,153.18,0,0,0,89.6,7.17c33.71-7.75,64.33-27.84,89.95-50.48a384.68,384.68,0,0,0,70.44-85.19,520.06,520.06,0,0,0,25.27-46.53c8.62-17.45,17.45-34.67,25.68-52.24,16.28-34.67,31-71.07,35.39-109.39,4.31-37.66-.05-75.63,1.36-113.52.11-2.5-3.72-2.35-3.82.15-.68,18-.11,36.1.29,54.08a436.13,436.13,0,0,1-1.36,56.23,258.54,258.54,0,0,1-12.76,55.8c-11.94,35.41-29,68.67-45.68,102-16.14,32.3-33.48,63.29-56,91.64s-48.91,54-80.1,72.74c-27.95,16.8-58.71,26.44-91.46,24.26a144.57,144.57,0,0,1-84.84-33.94,185.13,185.13,0,0,1-33.55-41.05,242.14,242.14,0,0,1-23.86-48.63c-11.63-32.89-15.7-67.65-17.63-102.3-2.13-37.44-.81-75.73-7.72-112.78-7-37.32-21.24-72.61-34.83-107.84-6.66-17.07-13.05-34.21-18.32-51.84a402.65,402.65,0,0,1-11.37-53.5c-4.27-27.65-12.72-54.54-17.49-82.14s-6.65-57.66,6.58-83.19a82.38,82.38,0,0,1,24.49-27.17,229.46,229.46,0,0,1,36.67-22.18,191.81,191.81,0,0,1,37.31-14.33,110.85,110.85,0,0,1,51.07.24c16.72,3.62,32.9,9.5,49.25,14.54s32.56,9.88,48.57,15.65a284.15,284.15,0,0,1,46.88,21.4,326,326,0,0,1,39.83,29.42c25.46,20.54,51.43,40.23,76.33,61.49,49.35,42.14,101,94,112.1,160.8.39,2.46,4.21,2.3,3.82-.15a176.34,176.34,0,0,0-13.49-44.15c-13.92-30.42-35-56.94-58.19-80.81a822.22,822.22,0,0,0-78.88-69.1c-13.23-10.4-26.34-20.61-39.27-30.94" transform="translate(-301.23 -670.93)"/><path id="Trazado_1496" data-name="Trazado 1496" class="cls-4" d="M2556.31,973.2c-19.82-9.92-40.75-16.43-61.91-23-80-24.87-167.14-50.15-250.8-27.62a235.16,235.16,0,0,0-58.43,24.63c-17.86,10.5-34.62,23.06-52,34.45a225.81,225.81,0,0,0-40.28,31.33,102.77,102.77,0,0,0-24.92,43.59,368.11,368.11,0,0,0-10.58,66.55,455.61,455.61,0,0,0-.89,66.9c2.7,46.77,10.95,94.78,30.55,137.7,20.48,44.74,49.64,85.13,65.94,131.79,16,45.78,23.19,94.2,29.08,142.07,2.78,22.55,4.84,45.14,7.13,67.75a320.71,320.71,0,0,0,12,64.85,151.14,151.14,0,0,0,31.88,55.67,145.05,145.05,0,0,0,51.77,35.19c8.87,3.69,17.9,6.91,26.84,10.29,9.72,3.62,20.21,7.13,28.47,13.38,15.91,11.77,19.81,31.5,25.66,49.13,3.89,11.79,8.82,23.38,18.8,31.24a49.54,49.54,0,0,0,26.18,10c23.9,2.35,48.33-6.66,69.69-16.58A414.5,414.5,0,0,0,2548.9,1882a348.09,348.09,0,0,0,56.06-50.2,298.55,298.55,0,0,0,37.4-51.37,171.16,171.16,0,0,0,13.86-28.89,228.45,228.45,0,0,0,7.84-30.52c4.35-21.42,9.08-41.91,20.55-60.8,10.59-17.44,24.08-32.9,35.39-49.78,12.36-18.24,19.71-38.44,26.71-59.2a404.61,404.61,0,0,0,17.26-68.15c13.09-89.55-23-176.67-24.79-265.72a1.91,1.91,0,0,0-3.82.16,487.09,487.09,0,0,0,5.81,62.75c6.52,43.7,16.46,86.77,20.31,130.85a318.89,318.89,0,0,1-.35,64.65,369.37,369.37,0,0,1-15.89,67.81c-6.74,20.91-13.8,42-25.65,60.54-10.86,16.92-24.16,32.26-35.12,49.12a158.82,158.82,0,0,0-21.93,56.12c-4.35,20.84-8.38,40.93-18.42,60-28.34,54.14-73.43,96-124.75,127.81-22.28,13.79-45.91,26.31-71.19,33.64-19.45,5.57-43.89,9-61-4.55-10.55-8.45-15-21.18-19-33.6-5.19-16.41-9.79-34-23.71-45.39a87.75,87.75,0,0,0-24.45-12.71c-8.88-3.46-17.83-6.63-26.71-10.1-19.85-7.73-38.15-17.67-53.3-32.84-33-32.88-42.38-77.61-47-122.29-4.72-45-8.86-89.9-17-134.45a518.28,518.28,0,0,0-16.9-68.95,376.17,376.17,0,0,0-27-61.62c-11.81-21.91-24.55-43.22-35.56-65.47a302.16,302.16,0,0,1-24.88-69.07,483.74,483.74,0,0,1-11.25-134.86,476.1,476.1,0,0,1,8.86-66.78,103.68,103.68,0,0,1,23.51-49.22c11.39-12.75,25.48-22.6,39.67-32,16.31-10.85,32.32-22.35,49-32.76a241.74,241.74,0,0,1,120.81-36c42.28-1.43,84.43,6.28,125.24,16.8,20.88,5.44,41.58,11.57,62.17,17.88,22.12,6.87,44.17,13.47,65,23.88a1.9,1.9,0,0,0,2.58-.79,2.06,2.06,0,0,0-.88-2.63" transform="translate(-301.23 -670.93)"/><path id="Trazado_1497" data-name="Trazado 1497" class="cls-4" d="M2711,1027.41c-2-9.71-3.69-19.48-6.28-29a175.43,175.43,0,0,0-7.68-22.35,302.73,302.73,0,0,0-25.2-47.57A358.08,358.08,0,0,0,2639,884.75a222.13,222.13,0,0,0-36.39-33.42A281.91,281.91,0,0,0,2456.77,797a531.49,531.49,0,0,0-105.66,2.66c-5.12.55-10.19,1.23-15.3,1.77a17.66,17.66,0,1,0-11.2,22.33,17.81,17.81,0,0,0,12.1-16.65,14.63,14.63,0,0,0-.12-1.94c4.89-.56,9.69-1.17,14.58-1.74,4.53-.54,9-1,13.57-1.41a474.37,474.37,0,0,1,103.09-.13A281.55,281.55,0,0,1,2565,832.13a268.77,268.77,0,0,1,45.53,30,252.53,252.53,0,0,1,34.67,35.89,358.21,358.21,0,0,1,31.29,45.4,251.65,251.65,0,0,1,21.77,46.67c5.75,17.23,8,35.25,12.23,52.85a146.09,146.09,0,0,0,8.16,24.86,153.24,153.24,0,0,0,15.35,26.48c.77,1,6,28.1,10.34,41.45,12.71,39.6,36.44,75.44,46.21,116.08,6.07,25.23,8.73,51.68,11.66,77.47,3,26.79,5.3,53.7,7.62,80.52,4.53,51.49,6.55,104.62-.31,156-1.67,12.3-3.75,24.7-4.58,37.15a142.91,142.91,0,0,0,3,33.42c3.69,23-.63,46.29-6.3,68.55-5.9,22.82-13.82,45.13-21.21,67.52-6.56,19.86-12.81,39.78-20.56,59.27-15.48,38.77-35.6,80.23-69.59,106.12a435.28,435.28,0,0,1-87,51.07,255.65,255.65,0,0,1-52.11,17.8c-15.64,3.32-37,6.37-50.76-3.67-7.13-5.22-12.6-11.65-21.22-14.38a35.45,35.45,0,0,0-22.62.17c-9.16,3-17.91,7.09-27.26,9.64a207.66,207.66,0,0,1-30.51,5.93,163.34,163.34,0,0,1-99.39-20.4c-30.35-17.07-55.73-42-78.66-67.91-15.92-18-31.62-35.92-48.66-52.8-18.54-18.26-37.87-35.6-57.5-52.64-16.44-14.19-39.72-26.9-47.53-48.27-4.14-11.36-4.47-23.81-6-35.59-1.67-12.56-3.75-25-5.43-37.56-7-52.4-13.46-104.57-24.66-156.22a392.66,392.66,0,0,0-22.85-75,166.61,166.61,0,0,0-17-30.16c-6.67-9.48-13.4-18.66-17.17-29.68-7.31-21.42-8-44.8-7.88-67.26s1-44.69-.37-67c-2.85-48.84-3.42-98.76,8.19-146.62,10.9-44.55,30.72-90.74,62.66-124.28,16.35-17.12,35.23-31.45,49.32-50.63,14.4-19.7,26.93-40.17,44.38-57.56,34.31-34,78.43-53.44,124.76-64.92,2.33-.58,1.27-4.25-1.2-3.64a330,330,0,0,0-63.71,22.15,231,231,0,0,0-57.27,38.62c-18.07,16.68-31.53,36.36-45.33,56.42A183.84,183.84,0,0,1,2063,962.7c-9.09,8.54-18.43,16.7-27.06,25.63a226.56,226.56,0,0,0-39.24,56.57,331.32,331.32,0,0,0-35.39,130.16,708.9,708.9,0,0,0,0,77.55c1,23.58,1.34,46.89,1,70.5-.2,22.28-.07,45,5.28,66.75a91.56,91.56,0,0,0,12.14,28.53c6.25,9.59,13.59,18.55,18.9,28.74,13,24.82,20.67,52.2,26.86,79.37s11.32,54.17,15.38,81.57c4,26.78,7.1,53.62,10.72,80.41,1.76,13.19,4.05,26.46,5.67,39.69,1.41,11.23,1.9,22.84,5.36,33.79,6.64,20.79,26.43,32.91,42.45,46,20,16.35,39.17,34,57.7,51.93,54.21,52.29,98.5,124.4,175.88,144.53a178.47,178.47,0,0,0,109.08-8c8.61-3.46,16.77-7,26.22-5,10.91,2.24,16.72,10,25.46,15.88,12.79,8.62,31.26,7,45.67,4.58,36.26-6,70.91-23.08,102.43-41.36,13.7-7.86,26.88-16.39,39.75-25.58a166,166,0,0,0,39-40.26c24.4-34.79,39.8-75.36,52.7-115.67,14-43.5,33.53-88.23,34.08-134.57.14-11.12-2.44-21.77-3.87-32.78a143.21,143.21,0,0,1,1.67-38.89,655.28,655.28,0,0,0,6.27-78c.88-53.49-4.13-106.9-9.57-160-2.8-27-6.09-53.94-10.84-80.6a255.37,255.37,0,0,0-19.2-58.9c-8.77-20-18.47-39.56-26-60.06-7.26-19.76-12.46-47.62-14.79-53.45q-4.55-6.4-8.53-13.18c-9-16.26-13.54-33.57-17.15-51.25M2318.92,820.76a13.88,13.88,0,0,1,.22-27.75,13.88,13.88,0,0,1-.22,27.75" transform="translate(-301.23 -670.93)"/><path id="Trazado_1498" data-name="Trazado 1498" class="cls-4" d="M1913.6,907a519.55,519.55,0,0,0-28.7,91.25c-14.17,64.75-10.6,130.83-7.26,196.53,1.74,34.18,2.1,68.35,3,102.51.94,32.41,5,64.4,16.27,95.06,6,16.29,13.54,31.82,18.86,48.2a355.8,355.8,0,0,1,12.06,49.24,684.92,684.92,0,0,1,8.8,104c1.64,67.36-1.33,135.81,13.08,202.1,7.59,34.55,26.92,64.12,49.52,90.77a645.16,645.16,0,0,0,73.82,74.22c25.37,21.66,53.07,43.91,83.4,58.28,26.09,12.3,54.54,17.37,83.08,20.17,28.09,2.76,56.57,3.31,84.37,8.7,14.45,2.73,28.1,7.78,42.32,11.89a310.49,310.49,0,0,0,45.35,9.75,467.78,467.78,0,0,0,92.25,2c34.88-2.14,70.2-2.27,104.74-7.53,31.4-4.7,62.33-14.82,86.39-36.41,24.16-21.76,45-48.54,64-74.83,37.25-51.71,65.91-108.92,89-168.17,12-30.61,22.49-61.5,27.7-94.07,5.07-31.72,4.09-63.11,4.28-95.07.44-69.86,29.42-136.33,27.27-206.33-4.31-138.27-108.32-246.5-140-377.29-.53-2.41-4.26-1.27-3.64,1.2a503.07,503.07,0,0,0,32.34,90.25c27.59,60.67,62.38,118.1,85.33,180.88a350.64,350.64,0,0,1,21.65,95.61c2.31,34.4-3.53,68-10.26,101.52-6.48,32.15-13.74,64.42-16,97.26-1.13,16.83-.06,33.68-.15,50.54a371.58,371.58,0,0,1-27.76,142.69,900.74,900.74,0,0,1-37.83,87,641,641,0,0,1-108.44,155.8,136.68,136.68,0,0,1-41.67,30.72,193.44,193.44,0,0,1-50,14.43c-33.79,5.36-68.19,5.34-102.27,7.5-31.33,2-62.84,2.84-94.1-1.24a317.85,317.85,0,0,1-43-8.81c-14.4-4-28.25-9.28-42.86-12.34-54.88-11.39-113-4.1-165.53-27-31-13.49-58.91-35.75-84.58-57.48a649.91,649.91,0,0,1-73.1-72.5c-23.58-27.35-44.3-57.53-52.15-93.4a579.47,579.47,0,0,1-11.12-100.13c-2.53-66.85,1-134.35-10-200.6a382,382,0,0,0-10.49-46.43c-4.84-16.21-11.5-31.53-17.79-47.09a281.28,281.28,0,0,1-19.27-94.53c-1.4-33.39-1.14-66.83-2.81-100.15-1.75-33.6-3.72-67.22-3.75-101a502.24,502.24,0,0,1,35.21-187.32c11.17-28.29,25-56.29,43.56-80.46,18.5-24,42.1-43.65,67-60.65a705.1,705.1,0,0,1,79.33-46c28.77-14.67,57.73-30.64,89.29-38.51,33.21-8.28,66.75-7,100.64-8.48,30.48-1.4,60.87-4.61,91.26-6.64,30.89-2.09,62.06-3.31,92.9.52a128.33,128.33,0,0,1,73.47,29.56c21.75,16.8,40.6,36.88,59.87,56.27,8.77,8.89,17.68,17.75,27.18,26,10.8,9.4,22.63,17.09,34.27,25.49,12.15,8.7,24.32,18.35,31.82,31.49,9.13,15.87,13.85,34.22,18.18,51.87,8.23,33.88,15.39,68.16,38.48,95.57,1.56,1.87,4.77-.17,3.21-2-24-28.55-30.35-64.44-39.25-99.53-4.16-16.38-9-33.17-17.41-47.91-7.35-12.82-18.94-22.46-30.66-30.91s-23.78-16.15-34.66-25.61c-9.93-8.53-19.25-17.86-28.49-27.15-19.67-19.87-39-40.48-61.39-57.42a144,144,0,0,0-69.54-28.72c-61.41-8.66-123.62,2.26-185.09,5.34-33.1,1.69-66,.13-98.56,7.16-32,6.8-60.74,22.06-89.69,36.64-54.19,27.29-111.21,58.12-150.52,105.67-19.1,23-33.28,50.35-44.89,78" transform="translate(-301.23 -670.93)"/><path id="Trazado_1503" data-name="Trazado 1503" class="cls-4" d="M2006,1712.72c3.33,14.84,5.69,29,8.75,43.87a222,222,0,0,0,12.43,41.65,262.83,262.83,0,0,0,20.35,37.78,242.59,242.59,0,0,0,27,35.1,296,296,0,0,0,35.51,31.38c24.86,19,51.5,35.84,74.41,57.31,2.85,2.64,5.64,5.37,8.3,8.13a2.33,2.33,0,0,0,1.25.64,9.6,9.6,0,0,0,10.35,15.2,9.68,9.68,0,0,0-3.11-18.9,10.06,10.06,0,0,0-5,1.54,2,2,0,0,0-.61-1.89c-21.8-22.55-48.1-39.75-73.13-58.29a382.77,382.77,0,0,1-36.27-29.72,221.73,221.73,0,0,1-29.49-35,266.71,266.71,0,0,1-21.9-37.54,195.49,195.49,0,0,1-13.86-40.41c-3.25-14.21-7.44-35.39-10.47-50.16a2,2,0,0,0-2.12-1.51Zm195.4,256.12a5.87,5.87,0,1,1-5.72,6h0a5.78,5.78,0,0,1,5.72-6h0" transform="translate(-301.23 -670.93)"/><path id="Trazado_1504" data-name="Trazado 1504" class="cls-4" d="M1491.52,1744.81a82.4,82.4,0,0,1,1.77,25.79,101.08,101.08,0,0,0-.37,11.68,65.24,65.24,0,0,1-1.07,16.15,26,26,0,0,1-19.77,18.92,19.58,19.58,0,0,1-20.23-8.07c-10-13.83-21.33-33.81-23.35-48.32-2-14.74,4.17-26.55,17.07-32.68,14.15-6.66,32-3.75,41.52,6.63a23.49,23.49,0,0,1,4.43,9.9m-59,20.18c3.35,13.45,13.17,30.31,21.87,42.42a16.53,16.53,0,0,0,17.15,6.81,22.64,22.64,0,0,0,17.35-16.65,58.67,58.67,0,0,0,1-15.26,84.62,84.62,0,0,1,.4-12.12c1-8.35-.49-27.72-5.58-33.23-8.56-9.45-24.86-12-37.9-5.85a26.52,26.52,0,0,0-15.34,29.4c.35,1.37.67,3,1,4.48" transform="translate(-301.23 -670.93)"/><path id="Trazado_1505" data-name="Trazado 1505" class="cls-4" d="M1621.66,1658.5a5.73,5.73,0,1,1-6.94-4.17h0a5.8,5.8,0,0,1,6.94,4.17m-8.1,2a2.62,2.62,0,1,0,1.91-3.17h0a2.66,2.66,0,0,0-1.91,3.17" transform="translate(-301.23 -670.93)"/><path id="Trazado_1506" data-name="Trazado 1506" class="cls-4" d="M1602.34,1645.61a4.24,4.24,0,0,1,5.06,3,4.14,4.14,0,0,1-3,5.06,4.22,4.22,0,0,1-5.06-3h0a4.23,4.23,0,0,1,3-5.06" transform="translate(-301.23 -670.93)"/><path id="Trazado_1508" data-name="Trazado 1508" class="cls-4" d="M2450.29,1676.21a140.8,140.8,0,0,1-48,4.17c-14.71-1.14-30.34-3.87-43.26-11.29-22.65-12.79-34.76-37.68-42.32-61.6a271.09,271.09,0,0,1-12.21-87.24c.71-33.41,4.86-66.73.49-100-2.13-15.86-3.27-31.83-5.9-47.65-2.5-15.26-6.05-31.28-14.74-44.2-1.29-1.94-4.56-.17-3.19,1.82,8.15,12.25,11.66,27.19,14.05,41.46,2.5,14.68,3.72,29.53,5.5,44.25a330.48,330.48,0,0,1,2.38,50.78c-.54,17.41-1.84,34.71-2.29,52.17a277,277,0,0,0,12,88.62c7.19,23.57,18.6,47.69,39.51,62,13.08,8.91,29,12.44,44.56,14.18a144.41,144.41,0,0,0,54.22-3.83c2.47-.61,1.63-4.26-.76-3.6" transform="translate(-301.23 -670.93)"/><path id="Trazado_1509" data-name="Trazado 1509" class="cls-4" d="M959.34,1832.31a10.75,10.75,0,1,1-13-7.83h0a10.75,10.75,0,0,1,13,7.83M943,1836.38a6.08,6.08,0,1,0,4.43-7.37h0a6,6,0,0,0-4.43,7.37" transform="translate(-301.23 -670.93)"/><path id="Trazado_1511" data-name="Trazado 1511" class="cls-4" d="M1243.53,1815.24a10.25,10.25,0,1,1-12.43-7.47h0a10.26,10.26,0,0,1,12.43,7.47m-16.88,4.21a7.14,7.14,0,1,0,5.2-8.66h0a7.12,7.12,0,0,0-5.2,8.66" transform="translate(-301.23 -670.93)"/><path id="Trazado_1512" data-name="Trazado 1512" class="cls-4" d="M1333,1571.61a10.39,10.39,0,1,1-12.6-7.57h0a10.33,10.33,0,0,1,12.6,7.57m-16.74,4.18a7,7,0,1,0,5.1-8.49,7.06,7.06,0,0,0-5.1,8.49" transform="translate(-301.23 -670.93)"/><path id="Trazado_1517" data-name="Trazado 1517" class="cls-4" d="M2512.38,1645.5a8.41,8.41,0,1,1-6.13,10.2,8.39,8.39,0,0,1,6.13-10.2h0" transform="translate(-301.23 -670.93)"/><path id="Trazado_1518" data-name="Trazado 1518" class="cls-4" d="M2278.13,1318.91a6.93,6.93,0,1,1-5.05,8.4h0a6.94,6.94,0,0,1,5.05-8.4" transform="translate(-301.23 -670.93)"/><path id="Trazado_1519" data-name="Trazado 1519" class="cls-4" d="M2265.56,1232.84a6.93,6.93,0,1,1-5,8.4h0a6.94,6.94,0,0,1,5-8.4" transform="translate(-301.23 -670.93)"/><path id="Trazado_1523" data-name="Trazado 1523" class="cls-4" d="M2520.38,1655.09c15.8-7.65,33.25-12.8,47.61-23.31,17.31-12.69,26.62-32.65,33.18-52.51,2.87-8.65,4.87-17.61,7.91-26.16a193.88,193.88,0,0,1,12.88-27.84c1.15-2.11-2-4-3.17-1.91a226.66,226.66,0,0,0-10.79,22.22c-2.94,7.8-5.53,15.81-7.68,23.85a160.13,160.13,0,0,1-15,37,73.21,73.21,0,0,1-17.44,20.67,97.38,97.38,0,0,1-20.75,12c-9.44,4.25-19.2,8.06-28.48,12.64-2.2,1.13-.38,4.32,1.76,3.27" transform="translate(-301.23 -670.93)"/><path id="Trazado_1524" data-name="Trazado 1524" class="cls-4" d="M949.18,1843.59c10.2,42.06,29,83.35,58.56,115.33,15.15,16.34,33.12,28.19,51.91,39.83,18.32,11.24,36.94,22.19,54.41,34.67a222.89,222.89,0,0,1,46.35,43.25,213.94,213.94,0,0,1,26.76,45.94c13.52,30.88,24.63,62.87,40.07,92.91,13.84,26.87,32.26,56,61.16,68.49a68.49,68.49,0,0,0,9.88,3.36c2.33.59,3.41-3,1.08-3.55-30.47-7.92-50.31-36.06-64.67-62.07-16.27-29.61-27.71-61.45-40.77-92.51a246.24,246.24,0,0,0-21.58-42.14,203.57,203.57,0,0,0-42.49-46.17,468,468,0,0,0-51-34.59c-18.67-11.45-38.47-22.18-55-36.57-33.15-28.9-54.73-69.86-67.11-111.6-1.49-5.09-2.84-10.22-4.19-15.35-.34-2.54-4-1.56-3.38.77" transform="translate(-301.23 -670.93)"/><path id="Trazado_1526" data-name="Trazado 1526" class="cls-4" d="M1554.24,2066.22c-20.91,13.45-43.13,25.76-67.11,32.47-22.47,6.33-47.47,7.17-67.27-7.06-12.41-8.85-20.14-22-27.28-35.17-9.15-16.81-16.72-34.31-24.1-51.93-14.28-33.9-28.08-70.54-52.5-98.63-24.13-27.79-58.68-48-76-81.39-1-2.14-4.38-.29-3.19,1.82,15.72,30.33,45.86,50.07,69.11,74.08,26.76,27.51,41.71,63.79,56.4,98.75,7.69,18.27,15.32,36.62,24.51,54.16,7.22,13.79,15,28.12,27,38.29,18.24,15.28,42.06,17.57,64.75,13,27.94-5.73,53.85-19.91,77.59-35.16,1.94-1.29.18-4.56-1.9-3.24" transform="translate(-301.23 -670.93)"/><path id="Trazado_1527" data-name="Trazado 1527" class="cls-4" d="M1313.49,1575.3c-49.24,9.15-95.83,28-143.43,43.2-14.53,4.57-33.26,7.78-43.15,20.74-6.59,8.64-5.46,19.58-2.23,29.34,5.41,15.85,14.42,30.37,21.74,45.38,1,2.14,4.23.33,3.19-1.82-6.3-13-13.72-25.51-19.27-39-3.85-9.32-7.45-20.81-1.66-30.05,8.26-13.35,27.88-16.5,41.53-20.78,22.63-7.17,44.91-15.13,67.47-22.57a582,582,0,0,1,76.65-20.79c2.42-.53,1.53-4.1-.84-3.66" transform="translate(-301.23 -670.93)"/><path id="Trazado_1529" data-name="Trazado 1529" class="cls-4" d="M2469.47,1673.62a10.75,10.75,0,1,1-13-7.83h0a10.74,10.74,0,0,1,13,7.83m-16.38,4.16a6,6,0,0,0,7.37,4.42,6.12,6.12,0,0,0,4.43-7.37,6.08,6.08,0,1,0-11.8,3" transform="translate(-301.23 -670.93)"/><path id="Trazado_1530" data-name="Trazado 1530" class="cls-4" d="M2268.53,1239.17c-8.13-32.3-21.14-62.87-32.87-93.83-6.71-17.57-14.18-39.32-2-56.27a60.3,60.3,0,0,1,23.41-17.79,108,108,0,0,1,35-10c26.59-2.7,53.65,2.36,79.4,8.62,28.57,7,56.4,16.62,84.88,24.17a1.79,1.79,0,0,0,2.21-1.36,1.9,1.9,0,0,0-1.22-2.24c-26.28-6.93-52-15.75-78.36-22.59-26.78-6.88-54.76-12.72-82.55-10.75a110.52,110.52,0,0,0-34.89,8,78.42,78.42,0,0,0-27,17c-13.47,14.07-12.57,33.16-7.2,50.62s12.84,34,19.33,50.93a483.75,483.75,0,0,1,18.33,56.28,1.87,1.87,0,0,0,2.23,1.34,1.55,1.55,0,0,0,1.38-2.09" transform="translate(-301.23 -670.93)"/><path id="Trazado_1531" data-name="Trazado 1531" class="cls-4" d="M2585.65,1278.52a179.7,179.7,0,0,1,2.9,63.92,230.57,230.57,0,0,1-18.45,66c-10.22,22.44-32,53.31-60.17,66.74-11.6,5.51-25,9.81-35.79,0-21.07-19.31-25.54-51.28-28.75-74.67-.65-4.94-1.36-9.57-2-13.48a313.53,313.53,0,0,0-15.76-53,230.29,230.29,0,0,0-10.87-23.45c-6.72-13.48-13.76-27.4-16.29-42.22-5.19-30.18,21.78-43.61,45.29-49.55,31.67-8,66.27-4.86,92.56,8.48a146.3,146.3,0,0,1,33.7,22.94c7.23,6.79,10,15.13,12.71,24.67.31,1.23.67,2.38,1,3.61M2453.93,1431c3.87,15.5,10.29,31,22.3,42.1,9.43,8.58,21.63,4.59,32.38-.5,27.38-13,48.75-43.27,58.66-65.2a226.39,226.39,0,0,0,18.1-65.07c2.83-25.49,1.64-47.2-3.69-66.27-2.54-9-5.19-17-11.84-23.21a144.13,144.13,0,0,0-33.07-22.44c-25.25-12.72-59.94-15.95-90.37-8.22-22.28,5.63-47.79,18.18-43,46,2.51,14.46,9.34,28.14,16,41.34a248.53,248.53,0,0,1,10.94,23.73,314.29,314.29,0,0,1,16,53.5c.77,4,1.35,8.63,2.08,13.62,1.37,10.15,3.21,20.48,5.52,30.62" transform="translate(-301.23 -670.93)"/><path id="Trazado_1532" data-name="Trazado 1532" class="cls-4" d="M2541.16,1316.65c.14.55.27,1.1.41,1.65a70.13,70.13,0,0,1-7.25,46.63c-4.41,7.73-18.81,28-32.83,28.81a15,15,0,0,1-13.18-7c-4.66-6.42-4.84-12.71-5-20.62a100.19,100.19,0,0,0-2.41-22.21c-2.48-10.82-8.68-22.83-14.18-33.49-7.57-14.58-13.49-26.07-7.28-29.81,16.36-9.76,44.35-2.16,59.07,6.33a49.62,49.62,0,0,1,22.64,29.7M2487,1377.81a20.28,20.28,0,0,0,3.43,7.31,12.23,12.23,0,0,0,10.88,6c11.36-.65,24.79-17.19,30.61-27.46a67.37,67.37,0,0,0,6.89-44.86,45.81,45.81,0,0,0-21.71-29.49c-14.12-8.14-40.87-15.46-56.38-6.35-4.14,2.42,1.82,14,8.23,26.3,5.53,10.79,11.85,23,14.4,34.08a102.74,102.74,0,0,1,2.46,22.71,60.32,60.32,0,0,0,1.19,11.8" transform="translate(-301.23 -670.93)"/><path id="Trazado_1534" data-name="Trazado 1534" class="cls-4" d="M1148.89,1704a8.42,8.42,0,1,1-6.12,10.2,8.38,8.38,0,0,1,6.12-10.2h0" transform="translate(-301.23 -670.93)"/><path id="Trazado_1536" data-name="Trazado 1536" class="cls-4" d="M1577.79,1544l-1.16,2.91c-6-2.52-10.68-8-14.83-13l-1.85-2.16a272.36,272.36,0,0,1-21.64-29.22c-12.37-19.21-27.54-40.58-51.15-52-14.91-7.21-42.67-20.63-64.11-14.84l-.8-2.94c22.59-6.14,50.94,7.63,66.25,15,24.3,11.79,39.79,33.58,52.36,53a247.66,247.66,0,0,0,21.35,28.93l1.85,2.16c4,4.62,8.44,9.85,13.73,12.1" transform="translate(-301.23 -670.93)"/><path id="Trazado_1537" data-name="Trazado 1537" class="cls-4" d="M1022,1394a8.41,8.41,0,1,1-6.13,10.2A8.58,8.58,0,0,1,1022,1394h0" transform="translate(-301.23 -670.93)"/><path id="Trazado_1538" data-name="Trazado 1538" class="cls-4" d="M2005.72,1703.54a5.59,5.59,0,1,1-4.07,6.77,5.55,5.55,0,0,1,4.07-6.77h0" transform="translate(-301.23 -670.93)"/><path id="Trazado_1539" data-name="Trazado 1539" class="cls-4" d="M2127.12,1730.41a7.43,7.43,0,1,1-5.41,9,7.62,7.62,0,0,1,5.41-9h0" transform="translate(-301.23 -670.93)"/><path id="Trazado_1540" data-name="Trazado 1540" class="cls-4" d="M2024.34,1335.69a9,9,0,1,1-17.43,4.34,9,9,0,0,1,17.43-4.34M2010,1339.2a5.87,5.87,0,1,0,4.27-7.12,5.85,5.85,0,0,0-4.27,7.12" transform="translate(-301.23 -670.93)"/><path id="Trazado_1541" data-name="Trazado 1541" class="cls-4" d="M1103,2430.52a62.31,62.31,0,0,1,1.63,24.08c-2.06,13.92-10.06,25.68-23.65,34.9-35.07,23.61-70,5.79-93.17-9.78-24.39-16.29-51.33-32.82-83.89-43.87-15.12-5.12-30.79-9.52-45.93-13.84-19.84-5.62-40.3-11.38-60-18.86-59-22.53-113.09-64-148.59-93.26-21.17-17.38-42.17-35.83-62.36-53.68-23.52-20.66-47.79-42-72.49-61.87-4.73-3.78-9.78-7.4-14.72-10.83s-10.08-7.11-14.93-11.07c-15.5-12.46-22.9-28.69-30.62-45.93l-.87-2.05c-20.57-45.37-33.91-98.89-38.68-154.83-2.08-25.28,0-50.37,2-74.62.72-8.78,1.47-17.78,2.07-26.75,2-32.64,1.38-65.79.77-97.77-.25-10.65-.42-21.25-.53-31.94l-.05-6.32c-.36-26-.8-55.55,10.74-80,10.56-22.24,26.83-44.66,51.32-70.66,32.45-34.4,84.26-55.77,129-52.93a198,198,0,0,1,39.58,7.91c4,1.12,8.13,2.2,12.18,3.24A75,75,0,0,1,708,1574.32a70.38,70.38,0,0,1,7.41,54.27c-.36,1.18-.64,2.42-1,3.68-18.7,60.63,5.64,110.61,31.28,163.46,7.31,15,14.85,30.62,21.51,46.53,31.3,75.27,54.07,120.1,80.5,172,18.14,35.63,36.86,72.43,60.41,123.32,27.62,59.65,66.25,109.34,107.2,161.95q9.84,12.74,19.78,25.53c3.46,4.53,7.76,9.8,12.44,15.41,19.6,24.26,47.5,58.41,55.45,90M431.78,2050a424.23,424.23,0,0,0,25,72.9l.88,2c7.93,17.48,14.78,32.68,29.52,44.45,4.73,3.78,9.79,7.4,14.81,10.89s10.08,7.1,14.84,11c24.88,20,49.15,41.31,72.66,62,20.25,17.76,41.11,36.25,62.27,53.63,35.3,29,89.07,70.2,147.49,92.59,19.42,7.47,39.88,13.23,59.63,18.8,15.28,4.28,31,8.68,46.25,13.9,33,11.17,60.22,27.91,84.79,44.3,35.83,23.86,63.18,26.88,88.64,9.74,12.68-8.48,20-19.34,22-32.07,5.27-35.56-31.85-81-56.39-111-4.54-5.65-8.93-11-12.48-15.55-6.56-8.49-13.12-17-19.77-25.53-39.28-50.55-79.82-102.68-107.69-162.7-23.6-50.81-42.32-87.61-60.37-123.19-25.33-49.87-49.31-97-80.65-172.36-6.58-15.85-14.16-31.37-21.39-46.33-26-53.56-50.68-104.19-31.5-166.39h0c.36-1.19.72-2.37,1-3.61a66.07,66.07,0,0,0-7.06-51.14,70.89,70.89,0,0,0-43.72-32.68c-4-1-8.17-2.12-12.26-3.29a193.48,193.48,0,0,0-38.82-7.81c-43.52-2.7-94.08,18.14-125.79,51.7C459.44,1610,443.38,1632.07,433,1654c-11.16,23.63-10.77,52.68-10.37,78.23l0,6.33c.12,10.69.28,21.28.53,31.94.65,32.12,1.35,65.32-.75,98.13-.52,9-1.31,18.11-2.12,26.83-2.18,25.18-4.11,49-2.11,74A531.66,531.66,0,0,0,431.78,2050" transform="translate(-301.23 -670.93)"/><path id="Trazado_1542" data-name="Trazado 1542" class="cls-4" d="M891.47,2249.9c4.35,17.43,4.66,35.35-4.35,48.6-15.45,22.8-53.71,25.71-76,20.4-24-5.68-43.34-21.26-62.1-36.26-3.75-3.08-7.56-6.06-11.28-9A624.45,624.45,0,0,0,684.45,2238a550.38,550.38,0,0,1-60.07-41c-45.2-37.19-83.36-94.07-97.18-144.84a469.33,469.33,0,0,1-10-51.95c-2-12.49-3.94-25.47-6.7-38A1102.94,1102.94,0,0,0,479.39,1849c-16-48.11-45.8-137.53,27.6-166.11,29.55-11.52,42.14-13.06,76.92-13.28l.05,4c-34.14.13-46,1.41-75.41,12.9-69.8,27.24-40.81,114.31-25.28,161.09a1091,1091,0,0,1,31.24,113.62c2.79,12.64,4.79,25.62,6.68,38.2a479.5,479.5,0,0,0,9.92,51.45c13.57,50,51.16,106.11,95.86,142.77a542.81,542.81,0,0,0,59.64,40.73,630,630,0,0,1,53.69,35.88c3.81,3,7.61,6,11.37,9,18.32,14.75,37.28,30,60.44,35.51,34.62,8.2,63.29-6.31,71.7-18.75,16.26-24-1.26-69.94-18.24-93.33-13.09-18-28-35.14-42.33-51.68a663.41,663.41,0,0,1-46-56.95c-31.85-45.62-46.12-100.51-60-153.53-2.1-8.15-4.26-16.21-6.41-24.27-3.84-14.2-7.56-29.16-11.07-43.52C685.88,1817,671.53,1759.12,643,1711.15l3.48-2.1c28.94,48.53,43.27,106.61,57.27,162.73,3.59,14.41,7.23,29.32,11.07,43.52,2.15,8.06,4.31,16.12,6.41,24.27,13.72,52.69,28,107.22,59.38,152.22a693.64,693.64,0,0,0,45.89,56.63c14.5,16.64,29.41,33.77,42.62,52a167.92,167.92,0,0,1,22.4,49.51" transform="translate(-301.23 -670.93)"/><path id="Trazado_1544" data-name="Trazado 1544" class="cls-4" d="M2103.47,1519.5c.51,2.06.94,4.07,1.4,6.21,5.68,27.44,5.93,57.11,6.22,85.75.42,42.6.91,86.65,18.89,123.7l-2.79,1.35c-18.3-37.7-18.71-82-19.15-125-.34-28.56-.56-58.09-6.17-85.26-6.94-33.69-25.09-62.32-42.72-90.06-17.74-27.94-36.09-56.81-43.09-91l3.06-.62c6.85,33.64,25,62.27,42.63,90,16.67,26.24,33.85,53.36,41.72,84.92" transform="translate(-301.23 -670.93)"/><path id="Trazado_1545" data-name="Trazado 1545" class="cls-4" d="M1846.94,945.73c-26.41,86.67-35.6,165.27-46.34,256.34l-1.66,14.41c-8,68.09,5.11,138.28,17.79,206.1,13.61,72.69,27.74,147.79,14.53,218.14l-4-.76c13-69.64-.36-141.15-14.54-216.75-12.75-68.09-26-138.55-17.88-207.32l1.66-14.4c10.27-87.39,19.91-170,46.48-257Z" transform="translate(-301.23 -670.93)"/><path id="Trazado_1546" data-name="Trazado 1546" class="cls-4" d="M1737.53,1155.78c5.52,34.11,1.88,68.32-1.62,101.34-3.63,34-7.39,69.17-1.3,104.68,1.35,8,4,18.25,6.62,29.17,8.63,34.36,18.35,73.33,3.23,84.9-7.72,5.86-20.56,3.74-39.21-6.77C1654.83,1440.79,1620,1388,1586.53,1337c-29.89-45.38-60.75-92.27-102.61-122.21l2.31-3.27c42.55,30.35,73.56,77.56,103.61,123.27,33.31,50.58,67.73,103,117.3,130.79,16.85,9.43,28.51,11.77,34.75,7,13-9.94,3.24-49.27-4.73-80.66-2.79-10.89-5.3-21.27-6.69-29.45-6.22-36-2.44-71.46,1.25-105.76,3.49-32.79,7.11-66.78,1.59-100.31Z" transform="translate(-301.23 -670.93)"/><path id="Trazado_1547" data-name="Trazado 1547" class="cls-4" d="M1483.8,1207.6a5.59,5.59,0,1,1-4.07,6.77,5.55,5.55,0,0,1,4.07-6.77h0" transform="translate(-301.23 -670.93)"/><path id="Trazado_1549" data-name="Trazado 1549" class="cls-4" d="M600.74,1667.82a10.24,10.24,0,0,1-7.33,12.4,10.07,10.07,0,0,1-11.83-5.94,10.2,10.2,0,1,1,18.63-8.29c0,.13.12.19.15.32a5.58,5.58,0,0,0,.38,1.51m-7.54,8.08a6.13,6.13,0,0,0-4.91-11.24,6.14,6.14,0,0,0,4.59,11.39.51.51,0,0,0,.32-.15" transform="translate(-301.23 -670.93)"/><path id="Trazado_1550" data-name="Trazado 1550" class="cls-4" d="M650.19,1701.62a12,12,0,1,0-6.33,15.79,12,12,0,0,0,6.33-15.79h0" transform="translate(-301.23 -670.93)"/></g></g></g></g></g></svg>